<?xml version="1.0" encoding="utf-8" ?>
<svg xmlns="http://www.w3.org/2000/svg" xmlns:xlink="http://www.w3.org/1999/xlink" width="48" height="49">
	<defs>
		<clipPath id="clip_0">
			<rect x="-231" y="-1039" width="1800" height="2950" clip-rule="evenodd"/>
		</clipPath>
	</defs>
	<g clip-path="url(#clip_0)">
		<path fill="rgb(203,32,35)" stroke="none" transform="translate(19 37)" d="M10 11L0 11L1.17925 0L8.82076 0L10 11L10 11Z"/>
	</g>
	<defs>
		<clipPath id="clip_1">
			<rect x="-231" y="-1039" width="1800" height="2950" clip-rule="evenodd"/>
		</clipPath>
	</defs>
	<g clip-path="url(#clip_1)">
		<path fill="rgb(203,32,35)" stroke="none" d="M3.75631 0L44.2437 0C46.3182 1.5158e-16 48 2.00678 48 4.48227L48 6L0 6L0 4.48227C2.5406e-16 2.00678 1.68176 -1.5158e-16 3.75631 0Z"/>
	</g>
	<defs>
		<clipPath id="clip_2">
			<rect x="-231" y="-1039" width="1800" height="2950" clip-rule="evenodd"/>
		</clipPath>
	</defs>
	<g clip-path="url(#clip_2)">
		<path fill="rgb(61,60,59)" stroke="none" transform="translate(2 12)" d="M0 0L20 0L20 15L0 15L0 0Z"/>
	</g>
	<defs>
		<clipPath id="clip_3">
			<rect x="-231" y="-1039" width="1800" height="2950" clip-rule="evenodd"/>
		</clipPath>
	</defs>
	<g clip-path="url(#clip_3)">
		<path fill="rgb(61,60,59)" stroke="none" transform="translate(25 20)" d="M0 0L10 0L10 7L0 7L0 0Z"/>
	</g>
	<defs>
		<clipPath id="clip_4">
			<rect x="-231" y="-1039" width="1800" height="2950" clip-rule="evenodd"/>
		</clipPath>
	</defs>
	<g clip-path="url(#clip_4)">
		<path fill="rgb(61,60,59)" stroke="none" transform="translate(37 20)" d="M0 0L10 0L10 7L0 7L0 0Z"/>
	</g>
	<defs>
		<clipPath id="clip_5">
			<rect x="-231" y="-1039" width="1800" height="2950" clip-rule="evenodd"/>
		</clipPath>
	</defs>
	<g clip-path="url(#clip_5)">
		<path fill="rgb(61,60,59)" stroke="none" transform="translate(25 12)" d="M0 0L22 0L22 2L0 2L0 0Z"/>
	</g>
	<defs>
		<clipPath id="clip_6">
			<rect x="-231" y="-1039" width="1800" height="2950" clip-rule="evenodd"/>
		</clipPath>
	</defs>
	<g clip-path="url(#clip_6)">
		<path fill="rgb(61,60,59)" stroke="none" transform="translate(25 16)" d="M0 0L22 0L22 2L0 2L0 0Z"/>
	</g>
	<defs>
		<clipPath id="clip_7">
			<rect x="-231" y="-1039" width="1800" height="2950" clip-rule="evenodd"/>
		</clipPath>
	</defs>
	<g clip-path="url(#clip_7)">
		<path fill="rgb(203,32,35)" stroke="none" transform="translate(0 33)" d="M4.17035e-16 0L48 0L48 3.8961C48 6.16262 46.3182 8 44.2437 8L3.75631 8C1.70475 8.00028 0.0324614 6.20216 0 3.96104L0 0.0649351L4.17035e-16 0Z"/>
	</g>
	<defs>
		<clipPath id="clip_8">
			<rect x="-231" y="-1039" width="1800" height="2950" clip-rule="evenodd"/>
		</clipPath>
	</defs>
	<g clip-path="url(#clip_8)">
		<path fill="rgb(203,32,35)" stroke="none" transform="translate(16 47)" d="M0 0L18 0L18 2L0 2L0 0Z"/>
	</g>
	<defs>
		<clipPath id="clip_9">
			<rect x="-231" y="-1039" width="1800" height="2950" clip-rule="evenodd"/>
		</clipPath>
	</defs>
	<g clip-path="url(#clip_9)">
		<path fill="rgb(255,255,255)" stroke="none" transform="translate(23 35)" d="M2 4C3.10457 4 4 3.10457 4 2C4 0.895431 3.10457 0 2 0C0.895431 0 0 0.895431 0 2C0 3.10457 0.895431 4 2 4Z"/>
	</g>
</svg>
