<svg width="60" height="66" viewBox="0 0 60 66" fill="none" xmlns="http://www.w3.org/2000/svg">
<path d="M33.5873 65.5385H26.4133C25.873 65.5385 25.4351 65.0991 25.4351 64.557V38.5896H0.978271C0.43794 38.5896 0 38.1503 0 37.6082V9.392C0 8.84992 0.43794 8.41057 0.978271 8.41057H12.3738L9.97772 3.99674L9.76935 5.33803C9.69532 5.81632 9.2851 6.16865 8.80281 6.16865H5.4881C5.16527 6.16865 4.86299 6.00868 4.68038 5.74107C4.49809 5.4738 4.45896 5.13324 4.57635 4.83128L6.20681 0.626172C6.3529 0.249302 6.71518 0.000672299 7.11856 0.000672299H9.4351C9.5251 -0.000636278 9.61347 0.00950519 9.69924 0.031751H9.69956C9.70021 0.0324053 9.70054 0.0327324 9.70217 0.0324053C9.70217 0.0324053 9.70217 0.0324053 9.7025 0.0327324C9.7188 0.0369853 9.73478 0.0412382 9.75043 0.0464725C9.75043 0.0464725 9.75076 0.0458182 9.75206 0.0471268C9.97478 0.118117 10.1724 0.268931 10.2992 0.4855C10.3051 0.495642 10.311 0.50611 10.3165 0.516579L14.602 8.4109H45.399L49.6841 0.516252C49.6897 0.50611 49.6955 0.495642 49.7017 0.485173C49.8217 0.279399 50.0063 0.133493 50.215 0.0579225V0.0579225C50.2153 0.0579225 50.2157 0.0579225 50.216 0.0575954C50.2502 0.0454911 50.2858 0.0350224 50.3213 0.0261896C50.3216 0.0261896 50.3216 0.0261896 50.322 0.0261896V0.0261896C50.4012 0.00721519 50.483 -0.00194485 50.5652 0.000345155H52.8818C53.2851 0.000345155 53.6474 0.248975 53.7935 0.625845L55.424 4.83096C55.541 5.13291 55.5019 5.47347 55.32 5.74075C55.1373 6.00802 54.8354 6.16832 54.5122 6.16832H51.1972C50.7149 6.16832 50.3047 5.81599 50.2307 5.3377L50.0223 3.99641L47.6262 8.41024H59.0217C59.5621 8.41024 60 8.8496 60 9.39167V37.6079C60 38.1499 59.5621 38.5893 59.0217 38.5893H34.5649V64.5567C34.5656 65.0991 34.1277 65.5385 33.5873 65.5385Z" fill="#CB2023"/>
<rect x="2.76929" y="11.0769" width="54.4615" height="24.9231" fill="white"/>
</svg>
