<svg width="48" height="49" viewBox="0 0 48 49" fill="none" xmlns="http://www.w3.org/2000/svg">
<g id="crm">
<path id="Shape" d="M29 48H19L20.1792 37H27.8208L29 48V48Z" fill="#CB2023"/>
<path id="Shape_2" d="M3.75631 0H44.2437C46.3182 0 48 2.00678 48 4.48227V6H0V4.48227C0 2.00678 1.68176 0 3.75631 0Z" fill="#CB2023"/>
<g id="Group 2">
<rect id="Rectangle 10" x="2" y="12" width="20" height="15" fill="#3D3C3B"/>
<rect id="Rectangle 10 Copy" x="25" y="20" width="10" height="7" fill="#3D3C3B"/>
<rect id="Rectangle 10 Copy 2" x="37" y="20" width="10" height="7" fill="#3D3C3B"/>
<rect id="Rectangle 11" x="25" y="12" width="22" height="2" fill="#3D3C3B"/>
<rect id="Rectangle 11 Copy" x="25" y="16" width="22" height="2" fill="#3D3C3B"/>
</g>
<path id="Shape_3" d="M0 33H48V36.8961C48 39.1626 46.3182 41 44.2437 41H3.75631C1.70475 41.0003 0.0324614 39.2022 0 36.961V33.0649L0 33Z" fill="#CB2023"/>
<rect id="Rectangle-path" x="16" y="47" width="18" height="2" fill="#CB2023"/>
<path id="Oval" d="M25 39C26.1046 39 27 38.1046 27 37C27 35.8954 26.1046 35 25 35C23.8954 35 23 35.8954 23 37C23 38.1046 23.8954 39 25 39Z" fill="white"/>
</g>
</svg>
