<svg width="823" height="397" viewBox="0 0 823 397" fill="none" xmlns="http://www.w3.org/2000/svg">
<path fill-rule="evenodd" clip-rule="evenodd" d="M818.475 9H0.525391H0V8H0.525391H818.475H819V9H818.475ZM0.525391 55H818.475H819V54H818.475H0.525391H0V55H0.525391ZM818.475 101H0.525391H0V100H0.525391H818.475H819V101H818.475ZM0.525391 147H818.475H819V146H818.475H0.525391H0V147H0.525391ZM818.475 193H0.525391H0V192H0.525391H818.475H819V193H818.475ZM0.525391 239H818.475H819V238H818.475H0.525391H0V239H0.525391ZM818.475 285H0.525391H0V284H0.525391H818.475H819V285H818.475ZM0.525391 331H818.475H819V330H818.475H0.525391H0V331H0.525391ZM0.525391 377H818.475H819V376H818.475H0.525391H0V377H0.525391Z" fill="url(#paint0_linear)"/>
<path opacity="0.319531" d="M46.0332 391.522L82.0733 331.832L129.594 370.984L192.526 291.3L257.23 313.851L290.67 236.386L364.415 198.402L389.651 225.022L448.147 253.716L495.969 205.692L542.606 161.021L578.172 179.765L609.81 120.407L672.967 131.34H738.016L788.002 82.5173L805.798 6.43219" stroke="white" stroke-width="3"/>
<g filter="url(#filter0_d)">
<path fill-rule="evenodd" clip-rule="evenodd" d="M810 6C810 8.20914 808.209 10 806 10C803.791 10 802 8.20914 802 6C802 3.79086 803.791 2 806 2C808.209 2 810 3.79086 810 6ZM787 85C789.209 85 791 83.2091 791 81C791 78.7909 789.209 77 787 77C784.791 77 783 78.7909 783 81C783 83.2091 784.791 85 787 85ZM614 121C614 123.209 612.209 125 610 125C607.791 125 606 123.209 606 121C606 118.791 607.791 117 610 117C612.209 117 614 118.791 614 121ZM546 161C546 163.209 544.209 165 542 165C539.791 165 538 163.209 538 161C538 158.791 539.791 157 542 157C544.209 157 546 158.791 546 161ZM364 203C366.209 203 368 201.209 368 199C368 196.791 366.209 195 364 195C361.791 195 360 196.791 360 199C360 201.209 361.791 203 364 203ZM295 236C295 238.209 293.209 240 291 240C288.791 240 287 238.209 287 236C287 233.791 288.791 232 291 232C293.209 232 295 233.791 295 236ZM196 291C196 293.209 194.209 295 192 295C189.791 295 188 293.209 188 291C188 288.791 189.791 287 192 287C194.209 287 196 288.791 196 291ZM83 337C85.2091 337 87 335.209 87 333C87 330.791 85.2091 329 83 329C80.7909 329 79 330.791 79 333C79 335.209 80.7909 337 83 337ZM130 375C132.209 375 134 373.209 134 371C134 368.791 132.209 367 130 367C127.791 367 126 368.791 126 371C126 373.209 127.791 375 130 375ZM258 317C260.209 317 262 315.209 262 313C262 310.791 260.209 309 258 309C255.791 309 254 310.791 254 313C254 315.209 255.791 317 258 317ZM393 224C393 226.209 391.209 228 389 228C386.791 228 385 226.209 385 224C385 221.791 386.791 220 389 220C391.209 220 393 221.791 393 224ZM448 257C450.209 257 452 255.209 452 253C452 250.791 450.209 249 448 249C445.791 249 444 250.791 444 253C444 255.209 445.791 257 448 257ZM578 183C580.209 183 582 181.209 582 179C582 176.791 580.209 175 578 175C575.791 175 574 176.791 574 179C574 181.209 575.791 183 578 183ZM673 135C675.209 135 677 133.209 677 131C677 128.791 675.209 127 673 127C670.791 127 669 128.791 669 131C669 133.209 670.791 135 673 135ZM742 131C742 133.209 740.209 135 738 135C735.791 135 734 133.209 734 131C734 128.791 735.791 127 738 127C740.209 127 742 128.791 742 131Z" fill="#7A7979"/>
</g>
<path d="M40.2991 386.631L85.4321 361.266L133.572 348.584L189.219 325.847L246.631 284.962L333.121 264.804L390.489 182.877L429.413 196.449L448.841 230.847L503.763 264.804L549.268 252.657L581.555 208.407L639.2 103.996L702.279 35.9494L728.848 59.6001L779.005 35.9494L815.603 27.0867" stroke="white" stroke-width="3"/>
<g filter="url(#filter1_d)">
<path fill-rule="evenodd" clip-rule="evenodd" d="M819 27C819 29.2091 817.209 31 815 31C812.791 31 811 29.2091 811 27C811 24.7909 812.791 23 815 23C817.209 23 819 24.7909 819 27ZM702 40C704.209 40 706 38.2091 706 36C706 33.7909 704.209 32 702 32C699.791 32 698 33.7909 698 36C698 38.2091 699.791 40 702 40ZM643 105C643 107.209 641.209 109 639 109C636.791 109 635 107.209 635 105C635 102.791 636.791 101 639 101C641.209 101 643 102.791 643 105ZM394 183C394 185.209 392.209 187 390 187C387.791 187 386 185.209 386 183C386 180.791 387.791 179 390 179C392.209 179 394 180.791 394 183ZM333 268C335.209 268 337 266.209 337 264C337 261.791 335.209 260 333 260C330.791 260 329 261.791 329 264C329 266.209 330.791 268 333 268ZM251 285C251 287.209 249.209 289 247 289C244.791 289 243 287.209 243 285C243 282.791 244.791 281 247 281C249.209 281 251 282.791 251 285ZM190 331C192.209 331 194 329.209 194 327C194 324.791 192.209 323 190 323C187.791 323 186 324.791 186 327C186 329.209 187.791 331 190 331ZM140 348C140 350.209 138.209 352 136 352C133.791 352 132 350.209 132 348C132 345.791 133.791 344 136 344C138.209 344 140 345.791 140 348ZM85 363C85 365.209 83.2091 367 81 367C78.7909 367 77 365.209 77 363C77 360.791 78.7909 359 81 359C83.2091 359 85 360.791 85 363ZM428 201C430.209 201 432 199.209 432 197C432 194.791 430.209 193 428 193C425.791 193 424 194.791 424 197C424 199.209 425.791 201 428 201ZM453 230C453 232.209 451.209 234 449 234C446.791 234 445 232.209 445 230C445 227.791 446.791 226 449 226C451.209 226 453 227.791 453 230ZM505 268C507.209 268 509 266.209 509 264C509 261.791 507.209 260 505 260C502.791 260 501 261.791 501 264C501 266.209 502.791 268 505 268ZM551 254C551 256.209 549.209 258 547 258C544.791 258 543 256.209 543 254C543 251.791 544.791 250 547 250C549.209 250 551 251.791 551 254ZM581 211C583.209 211 585 209.209 585 207C585 204.791 583.209 203 581 203C578.791 203 577 204.791 577 207C577 209.209 578.791 211 581 211ZM732 60C732 62.2091 730.209 64 728 64C725.791 64 724 62.2091 724 60C724 57.7909 725.791 56 728 56C730.209 56 732 57.7909 732 60ZM778 40C780.209 40 782 38.2091 782 36C782 33.7909 780.209 32 778 32C775.791 32 774 33.7909 774 36C774 38.2091 775.791 40 778 40Z" fill="white"/>
</g>
<g filter="url(#filter2_d)">
<path d="M47 370.524L78.7782 386.954L113.137 331.898L146.598 339.952L192.274 373.967L239.726 328.948L273.359 344.359L307.216 260.707L350.633 227.769L397.988 247.035L421.961 275.595L464.938 266.803L504.243 222.726L583.24 234.121L632.683 193H677.404L722.535 98.7353L761.054 86.2204L768.322 9.10931" stroke="#E36D6F" stroke-width="3"/>
</g>
<g filter="url(#filter3_d)">
<path fill-rule="evenodd" clip-rule="evenodd" d="M772 10C772 12.2091 770.209 14 768 14C765.791 14 764 12.2091 764 10C764 7.79086 765.791 6 768 6C770.209 6 772 7.79086 772 10ZM761 90C763.209 90 765 88.2091 765 86C765 83.7909 763.209 82 761 82C758.791 82 757 83.7909 757 86C757 88.2091 758.791 90 761 90ZM726 100C726 102.209 724.209 104 722 104C719.791 104 718 102.209 718 100C718 97.7909 719.791 96 722 96C724.209 96 726 97.7909 726 100ZM635 194C635 196.209 633.209 198 631 198C628.791 198 627 196.209 627 194C627 191.791 628.791 190 631 190C633.209 190 635 191.791 635 194ZM506 223C506 225.209 504.209 227 502 227C499.791 227 498 225.209 498 223C498 220.791 499.791 219 502 219C504.209 219 506 220.791 506 223ZM355 228C355 230.209 353.209 232 351 232C348.791 232 347 230.209 347 228C347 225.791 348.791 224 351 224C353.209 224 355 225.791 355 228ZM308 265C310.209 265 312 263.209 312 261C312 258.791 310.209 257 308 257C305.791 257 304 258.791 304 261C304 263.209 305.791 265 308 265ZM239 334C241.209 334 243 332.209 243 330C243 327.791 241.209 326 239 326C236.791 326 235 327.791 235 330C235 332.209 236.791 334 239 334ZM119 332C119 334.209 117.209 336 115 336C112.791 336 111 334.209 111 332C111 329.791 112.791 328 115 328C117.209 328 119 329.791 119 332ZM85 387C85 389.209 83.2091 391 81 391C78.7909 391 77 389.209 77 387C77 384.791 78.7909 383 81 383C83.2091 383 85 384.791 85 387ZM147 344C149.209 344 151 342.209 151 340C151 337.791 149.209 336 147 336C144.791 336 143 337.791 143 340C143 342.209 144.791 344 147 344ZM194 373C194 375.209 192.209 377 190 377C187.791 377 186 375.209 186 373C186 370.791 187.791 369 190 369C192.209 369 194 370.791 194 373ZM277 345C277 347.209 275.209 349 273 349C270.791 349 269 347.209 269 345C269 342.791 270.791 341 273 341C275.209 341 277 342.791 277 345ZM398 252C400.209 252 402 250.209 402 248C402 245.791 400.209 244 398 244C395.791 244 394 245.791 394 248C394 250.209 395.791 252 398 252ZM427 275C427 277.209 425.209 279 423 279C420.791 279 419 277.209 419 275C419 272.791 420.791 271 423 271C425.209 271 427 272.791 427 275ZM464 270C466.209 270 468 268.209 468 266C468 263.791 466.209 262 464 262C461.791 262 460 263.791 460 266C460 268.209 461.791 270 464 270ZM581 237C583.209 237 585 235.209 585 233C585 230.791 583.209 229 581 229C578.791 229 577 230.791 577 233C577 235.209 578.791 237 581 237ZM678 198C680.209 198 682 196.209 682 194C682 191.791 680.209 190 678 190C675.791 190 674 191.791 674 194C674 196.209 675.791 198 678 198Z" fill="#EF9798"/>
</g>
<defs>
<filter id="filter0_d" x="75" y="0" width="739" height="381" filterUnits="userSpaceOnUse" color-interpolation-filters="sRGB">
<feFlood flood-opacity="0" result="BackgroundImageFix"/>
<feColorMatrix in="SourceAlpha" type="matrix" values="0 0 0 0 0 0 0 0 0 0 0 0 0 0 0 0 0 0 127 0"/>
<feOffset dy="2"/>
<feGaussianBlur stdDeviation="2"/>
<feColorMatrix type="matrix" values="0 0 0 0 0 0 0 0 0 0 0 0 0 0 0 0 0 0 0.5 0"/>
<feBlend mode="normal" in2="BackgroundImageFix" result="effect1_dropShadow"/>
<feBlend mode="normal" in="SourceGraphic" in2="effect1_dropShadow" result="shape"/>
</filter>
<filter id="filter1_d" x="73" y="21" width="750" height="352" filterUnits="userSpaceOnUse" color-interpolation-filters="sRGB">
<feFlood flood-opacity="0" result="BackgroundImageFix"/>
<feColorMatrix in="SourceAlpha" type="matrix" values="0 0 0 0 0 0 0 0 0 0 0 0 0 0 0 0 0 0 127 0"/>
<feOffset dy="2"/>
<feGaussianBlur stdDeviation="2"/>
<feColorMatrix type="matrix" values="0 0 0 0 0 0 0 0 0 0 0 0 0 0 0 0 0 0 0.5 0"/>
<feBlend mode="normal" in2="BackgroundImageFix" result="effect1_dropShadow"/>
<feBlend mode="normal" in="SourceGraphic" in2="effect1_dropShadow" result="shape"/>
</filter>
<filter id="filter2_d" x="42.311" y="6.96854" width="731.504" height="387.954" filterUnits="userSpaceOnUse" color-interpolation-filters="sRGB">
<feFlood flood-opacity="0" result="BackgroundImageFix"/>
<feColorMatrix in="SourceAlpha" type="matrix" values="0 0 0 0 0 0 0 0 0 0 0 0 0 0 0 0 0 0 127 0"/>
<feOffset dy="2"/>
<feGaussianBlur stdDeviation="2"/>
<feColorMatrix type="matrix" values="0 0 0 0 0 0 0 0 0 0 0 0 0 0 0 0 0 0 0.5 0"/>
<feBlend mode="normal" in2="BackgroundImageFix" result="effect1_dropShadow"/>
<feBlend mode="normal" in="SourceGraphic" in2="effect1_dropShadow" result="shape"/>
</filter>
<filter id="filter3_d" x="73" y="4" width="703" height="393" filterUnits="userSpaceOnUse" color-interpolation-filters="sRGB">
<feFlood flood-opacity="0" result="BackgroundImageFix"/>
<feColorMatrix in="SourceAlpha" type="matrix" values="0 0 0 0 0 0 0 0 0 0 0 0 0 0 0 0 0 0 127 0"/>
<feOffset dy="2"/>
<feGaussianBlur stdDeviation="2"/>
<feColorMatrix type="matrix" values="0 0 0 0 0 0 0 0 0 0 0 0 0 0 0 0 0 0 0.5 0"/>
<feBlend mode="normal" in2="BackgroundImageFix" result="effect1_dropShadow"/>
<feBlend mode="normal" in="SourceGraphic" in2="effect1_dropShadow" result="shape"/>
</filter>
<linearGradient id="paint0_linear" x1="849.959" y1="-28.9253" x2="-132.953" y2="-28.9253" gradientUnits="userSpaceOnUse">
<stop stop-color="#3D3C3B"/>
<stop offset="0.492255" stop-color="#6A6A6A"/>
<stop offset="1" stop-color="#3D3C3B"/>
</linearGradient>
</defs>
</svg>
