<?xml version="1.0" encoding="UTF-8"?>
<svg width="35px" height="35px" viewBox="0 0 35 35" version="1.1" xmlns="http://www.w3.org/2000/svg" xmlns:xlink="http://www.w3.org/1999/xlink">
    <!-- Generator: Sketch 50.2 (55047) - http://www.bohemiancoding.com/sketch -->
    <title>warning</title>
    <desc>Created with Sketch.</desc>
    <defs></defs>
    <g id="Design" stroke="none" stroke-width="1" fill="none" fill-rule="evenodd">
        <g id="development-5" transform="translate(-240.000000, -2187.000000)">
            <g id="warning" transform="translate(240.000000, 2187.000000)">
                <circle id="Oval-3" fill="#FFFFFF" cx="17.5" cy="17.5" r="17.5"></circle>
                <path d="M15.5399061,21.8309859 L15,8.33333333 L19.3192488,8.33333333 L18.7793427,21.8309859 L15.5399061,21.8309859 Z M17.1596244,27.5 C16.6197156,27.5 16.1473025,27.2975372 15.7423709,26.8926056 C15.3374393,26.487674 15.1349765,26.0152609 15.1349765,25.4753521 C15.1349765,24.9354433 15.3374393,24.4630302 15.7423709,24.0580986 C16.1473025,23.653167 16.6197156,23.4507042 17.1596244,23.4507042 C17.6995332,23.4507042 18.1719463,23.653167 18.5768779,24.0580986 C18.9818095,24.4630302 19.1842723,24.9354433 19.1842723,25.4753521 C19.1842723,26.0152609 18.9818095,26.487674 18.5768779,26.8926056 C18.1719463,27.2975372 17.6995332,27.5 17.1596244,27.5 Z" id="!" fill="#CC6A6C"></path>
            </g>
        </g>
    </g>
</svg>