<svg xmlns="http://www.w3.org/2000/svg" width="48" height="49"><defs><clipPath id="a"><path clip-rule="evenodd" d="M-231-1039h1800v2950H-231z"/></clipPath></defs><g clip-path="url(#a)"><path fill="#CB2023" d="M29 48H19l1.18-11h7.64L29 48z"/></g><defs><clipPath id="b"><path clip-rule="evenodd" d="M-231-1039h1800v2950H-231z"/></clipPath></defs><g clip-path="url(#b)"><path fill="#CB2023" d="M3.756 0h40.488C46.318 0 48 2.007 48 4.482V6H0V4.482C0 2.007 1.682 0 3.756 0z"/></g><defs><clipPath id="c"><path clip-rule="evenodd" d="M-231-1039h1800v2950H-231z"/></clipPath></defs><g clip-path="url(#c)"><path fill="#3D3C3B" d="M2 12h20v15H2V12z"/></g><defs><clipPath id="d"><path clip-rule="evenodd" d="M-231-1039h1800v2950H-231z"/></clipPath></defs><g clip-path="url(#d)"><path fill="#3D3C3B" d="M25 20h10v7H25v-7z"/></g><defs><clipPath id="e"><path clip-rule="evenodd" d="M-231-1039h1800v2950H-231z"/></clipPath></defs><g clip-path="url(#e)"><path fill="#3D3C3B" d="M37 20h10v7H37v-7z"/></g><defs><clipPath id="f"><path clip-rule="evenodd" d="M-231-1039h1800v2950H-231z"/></clipPath></defs><g clip-path="url(#f)"><path fill="#3D3C3B" d="M25 12h22v2H25v-2z"/></g><defs><clipPath id="g"><path clip-rule="evenodd" d="M-231-1039h1800v2950H-231z"/></clipPath></defs><g clip-path="url(#g)"><path fill="#3D3C3B" d="M25 16h22v2H25v-2z"/></g><defs><clipPath id="h"><path clip-rule="evenodd" d="M-231-1039h1800v2950H-231z"/></clipPath></defs><g clip-path="url(#h)"><path fill="#CB2023" d="M0 33h48v3.896C48 39.163 46.318 41 44.244 41H3.756C1.705 41 .032 39.202 0 36.961V33z"/></g><defs><clipPath id="i"><path clip-rule="evenodd" d="M-231-1039h1800v2950H-231z"/></clipPath></defs><g clip-path="url(#i)"><path fill="#CB2023" d="M16 47h18v2H16v-2z"/></g><defs><clipPath id="j"><path clip-rule="evenodd" d="M-231-1039h1800v2950H-231z"/></clipPath></defs><g clip-path="url(#j)"><path fill="#FFF" d="M25 39a2 2 0 1 0 0-4 2 2 0 0 0 0 4z"/></g></svg>