<svg width="67" height="24" xmlns="http://www.w3.org/2000/svg"><path d="M43.724 15.316c-2.101.44-3.715 2.162-3.715 4.324 0 2.418 1.989 4.36 4.466 4.36 1.351 0 2.552-.623 3.415-1.539 1.089-1.172 4.091-1.869 5.818-1.869 1.614 0 4.128.513 5.217 1.65.938.952 2.102 1.721 3.565 1.721 2.477 0 4.467-1.942 4.467-4.36 0-2.162-1.652-3.81-3.754-4.324-1.576-.366-3.377-2.198-4.203-3.627-.863-1.466-1.727-4.324-1.239-5.863.15-.44.263-.916.263-1.429 0-2.418-1.99-4.36-4.466-4.36-2.477 0-4.467 1.942-4.467 4.36 0 .477.113.953.226 1.393.488 1.502-.188 4.103-1.051 5.57-.901 1.465-2.965 3.663-4.542 3.993zm14.75 2.015c-1.276.806-3.34 1.32-4.766 1.32-1.426 0-3.753-.514-5.142-1.32-.038-1.575.638-3.774 1.389-4.983.713-1.21 2.177-2.675 3.528-3.37 1.426.732 3.04 2.454 3.753 3.663.75 1.21 1.313 3.188 1.238 4.69zM3.716 15.316C1.614 15.756 0 17.478 0 19.64 0 22.058 1.99 24 4.466 24c1.351 0 2.552-.623 3.416-1.539 1.088-1.172 4.09-1.869 5.817-1.869 1.614 0 4.129.513 5.217 1.65.938.952 2.102 1.721 3.565 1.721 2.478 0 4.467-1.942 4.467-4.36 0-2.162-1.652-3.81-3.753-4.324-1.577-.366-3.378-2.198-4.204-3.627-.863-1.466-1.726-4.324-1.239-5.863.15-.44.263-.916.263-1.429C17.978 1.942 15.988 0 13.511 0c-2.477 0-4.466 1.942-4.466 4.36 0 .477.113.953.225 1.393.488 1.539-.187 4.14-1.05 5.606-.864 1.429-2.928 3.627-4.504 3.957zm14.75 2.015c-1.276.806-3.34 1.32-4.767 1.32-1.426 0-3.753-.514-5.142-1.32-.037-1.575.638-3.774 1.389-4.983.713-1.21 2.177-2.675 3.528-3.37 1.426.732 3.04 2.454 3.753 3.663.75 1.21 1.314 3.188 1.239 4.69zM35.93 7.633c.876-.807 1.46-1.982 1.46-3.266C37.428 1.945 35.455 0 33.044 0a4.344 4.344 0 0 0-4.347 4.367c0 1.284.584 2.459 1.461 3.266A5.94 5.94 0 0 1 32.093 12c0 1.725-.73 3.303-1.936 4.367a4.341 4.341 0 0 0-1.461 3.266A4.344 4.344 0 0 0 33.043 24a4.344 4.344 0 0 0 4.348-4.367c0-1.284-.585-2.459-1.462-3.266-1.169-1.064-1.9-2.642-1.9-4.367s.731-3.303 1.9-4.367z" fill="#FFF"/></svg>