<svg width="139" height="25" xmlns="http://www.w3.org/2000/svg"><g fill="none"><path d="M42.253 5.211l4.56 13.472h-2.506l-.96-2.985h-4.694l-.933 2.985h-2.507l4.56-13.472h2.48zM39.32 13.48h3.307l-1.68-5.204-1.627 5.204zm9.387 5.203V5.238h5.76c2.346 0 3.76 1.426 3.76 2.958v2.853c0 1.083-.747 2.113-2 2.615l2.293 4.993h-2.64l-2.16-4.702h-2.507v4.702h-2.506v.026zm2.533-11.2v4.28h3.04c.8 0 1.467-.45 1.467-1.242V8.75c0-.819-.694-1.268-1.574-1.268H51.24zm11.973 11.2V7.457h-3.36V5.264h8.96v2.193H65.72v11.226zm8.614-3.83v.872c0 1.188 1.12 2.086 2.56 2.086h1.6c1.493 0 2.64-.713 2.64-1.954v-.951c0-2.06-7.494-2.457-7.494-5.997V7.694c0-1.347 1.307-2.536 3.04-2.536h1.787c1.947 0 3.387 1.295 3.387 2.748V9.12h-1.12V8.117c0-1.11-1.04-1.955-2.347-1.955h-1.547c-1.146 0-2.08.74-2.08 1.717v.978c0 2.641 7.494 2.985 7.494 5.89v1.295c0 1.69-1.574 2.747-3.68 2.747h-1.734c-2.106 0-3.653-1.347-3.653-2.906v-1.03h1.147zm13.546 3.83V6.242h-3.786v-.978h8.533v.978h-3.627v12.441zM96.147 5.185l4.773 13.498H99.8l-1.52-4.306h-5.413l-1.494 4.306h-1.146l4.8-13.498h1.12zm-2.934 8.189h4.72L95.587 6.61l-2.374 6.763zm11.68 5.309V6.242h-3.786v-.978h8.533v.978h-3.627v12.441zm7.254 0V5.264h1.12v13.419zm8.08.106c-1.867 0-3.2-1.347-3.2-2.906V8.064c0-1.558 1.36-2.906 3.2-2.906h2.693c1.84 0 3.173 1.348 3.173 2.906v7.819c0 1.559-1.333 2.906-3.173 2.906h-2.693zm2.586-1.004c1.2 0 2.16-.898 2.16-2.087V8.25c0-1.189-.96-2.087-2.16-2.087h-2.533c-1.2 0-2.16.898-2.16 2.087v7.476c0 1.188.96 2.086 2.16 2.086h2.533v-.026zm7.04.898V5.264h1.174l6.8 11.464V5.238h1.12v13.419h-1.174l-6.8-11.465v11.465h-1.12z" fill="#FFF"/><path d="M0 19.096l2.35 4.095c.476.931 1.427 1.57 2.51 1.57h15.665l-3.223-5.665H0zm27.947.026a2.84 2.84 0 0 0-.449-1.542L18.306 1.516A2.796 2.796 0 0 0 15.823 0h-4.86l14.184 24.734 2.245-3.91c.423-.744.555-1.063.555-1.702zm-12.97-4.069L8.637 4.016 2.299 15.053z" fill="#13AFF0"/></g></svg>