<svg width="60" height="66" fill="none" xmlns="http://www.w3.org/2000/svg"><path d="M33.587 65.538h-7.174a.98.98 0 0 1-.978-.981V38.59H.978A.98.98 0 0 1 0 37.608V9.392a.98.98 0 0 1 .978-.981h11.396L9.978 3.997l-.209 1.341a.979.979 0 0 1-.966.83H5.488a.978.978 0 0 1-.912-1.337L6.206.626A.979.979 0 0 1 7.12.001h2.316A.992.992 0 0 1 9.7.03c.001.001.002.002.003.001a.738.738 0 0 1 .048.014l.002.001a.976.976 0 0 1 .564.47l4.286 7.894H45.4L49.684.516l.018-.03a.977.977 0 0 1 .513-.428h.001a.976.976 0 0 1 .105-.032h.001A.933.933 0 0 1 50.565 0h2.317a.98.98 0 0 1 .912.626l1.63 4.205a.979.979 0 0 1-.912 1.337h-3.315a.979.979 0 0 1-.966-.83l-.209-1.342-2.396 4.414h11.396c.54 0 .978.44.978.982v28.216a.98.98 0 0 1-.978.981H34.565v25.968a.979.979 0 0 1-.978.981z" fill="#CB2023"/><path fill="#fff" d="M2.769 11.077h54.462V36H2.769z"/></svg>