<svg width="48" height="42" xmlns="http://www.w3.org/2000/svg"><g fill="none" fill-rule="evenodd"><path d="M46.622 10.473H1.11A1.11 1.11 0 0 0 0 11.583V38.05a3.236 3.236 0 0 0 3.235 3.235h41.26a3.236 3.236 0 0 0 3.237-3.236V11.583a1.11 1.11 0 0 0-1.11-1.11zM44.496 0H3.236A3.236 3.236 0 0 0 0 3.236v2.811c0 .613.497 1.11 1.11 1.11h45.512a1.11 1.11 0 0 0 1.11-1.11V3.236A3.236 3.236 0 0 0 44.496 0zM5.253 6.374h-.034a1.402 1.402 0 0 1 0-2.803h.034a1.402 1.402 0 0 1 0 2.803zm5.365-1.264a1.319 1.319 0 0 1-.101.398 1.26 1.26 0 0 1-.13.242 1.358 1.358 0 0 1-.628.517 1.477 1.477 0 0 1-.536.107 1.343 1.343 0 0 1-.407-.062 1.54 1.54 0 0 1-.253-.104 1.351 1.351 0 0 1-.423-.347 1.327 1.327 0 0 1-.212-.353 1.509 1.509 0 0 1-.1-.398 1.356 1.356 0 0 1 .16-.798 1.353 1.353 0 0 1 .346-.423 1.347 1.347 0 0 1 .353-.211 1.447 1.447 0 0 1 .674-.1 1.391 1.391 0 0 1 .64.229 1.374 1.374 0 0 1 .596.891 1.396 1.396 0 0 1 .02.412zm3.997 0a1.319 1.319 0 0 1-.054.269 1.509 1.509 0 0 1-.105.253 1.365 1.365 0 0 1-.458.506 1.351 1.351 0 0 1-.37.174 1.33 1.33 0 0 1-.407.062 1.347 1.347 0 0 1-.407-.062 1.512 1.512 0 0 1-.37-.175 1.415 1.415 0 0 1-.387-.388 1.36 1.36 0 0 1-.21-.503 1.34 1.34 0 0 1-.02-.412 1.376 1.376 0 0 1 .158-.522 1.362 1.362 0 0 1 .152-.229 1.214 1.214 0 0 1 .196-.194 1.193 1.193 0 0 1 .228-.153 1.483 1.483 0 0 1 .253-.104 1.647 1.647 0 0 1 .269-.054 1.362 1.362 0 0 1 .545.054 1.509 1.509 0 0 1 .253.104 1.306 1.306 0 0 1 .33.245 1.184 1.184 0 0 1 .175.213 1.34 1.34 0 0 1 .175.371 1.396 1.396 0 0 1 .054.545z" fill="#FFF" fill-rule="nonzero"/><path d="M18.931 30.874c-1.392 0-2.457-.446-3.195-1.337-.737-.89-1.106-2.288-1.106-4.193 0-1.894.361-3.29 1.083-4.186.722-.896 1.744-1.344 3.065-1.344.778 0 1.474.144 2.089.43.276.113.527.251.752.415l-.691 1.229h-.154a2.895 2.895 0 0 0-1.843-.691c-.676 0-1.203.312-1.582.937-.379.624-.568 1.694-.568 3.21 0 1.526.197 2.598.591 3.218.394.62.965.93 1.713.93.47 0 .921-.113 1.351-.339.226-.133.39-.25.492-.353h.154l.69 1.229a3.088 3.088 0 0 1-.752.43c-.594.276-1.29.415-2.089.415zm4.455-10.906h2.304l2.688 6.451.276.676.123.323h.061l-.046-.323a4.872 4.872 0 0 1-.03-.676v-6.451h2.15V30.72h-2.304l-2.688-6.451-.276-.676-.123-.323h-.062l.03.323c.032.4.047.625.047.676v6.451h-2.15V19.968z" fill="#CC6A6C"/></g></svg>