<svg width="37" height="52" xmlns="http://www.w3.org/2000/svg"><g fill="none" fill-rule="evenodd"><path d="M35.5 0H7.115c-.398 0-.78.158-1.06.44L.438 6.064A1.517 1.517 0 0 0 0 7.126v42.652c0 .83.672 1.503 1.5 1.503h34c.828 0 1.5-.673 1.5-1.503V1.502C37 .672 36.328 0 35.5 0zm-20 35.055h-8a1.501 1.501 0 1 1 0-3.005h8a1.502 1.502 0 0 1 0 3.005zm14-6.01h-22a1.501 1.501 0 1 1 0-3.005l22 .001a1.501 1.501 0 1 1 0 3.005zm0-6.009h-22a1.501 1.501 0 1 1 0-3.005h22a1.502 1.502 0 0 1 0 3.005zm1.5-7.512c0 .83-.672 1.503-1.5 1.503h-8c-.828 0-1.5-.673-1.5-1.503V7.512c0-.83.672-1.503 1.5-1.503h8c.828 0 1.5.673 1.5 1.503v8.012z" fill="#FFF" fill-rule="nonzero"/><path d="M30.292 41.736a4.18 4.18 0 0 1-3.187.525 4.185 4.185 0 0 1-2.03-1.135l-1.602 3.3a1.499 1.499 0 0 1-2.005.694 1.503 1.503 0 0 1-.693-2.008l2.738-5.64c.516-1.063 2.004-1.139 2.625-.133l.896 1.452a1.212 1.212 0 0 0 1.674.393 1.499 1.499 0 0 1 2.066.482 1.504 1.504 0 0 1-.482 2.07z" fill="#CC6A6C"/></g></svg>