<svg width="39" height="39" xmlns="http://www.w3.org/2000/svg"><g fill="none"><path d="M29.774 6.721c0-.923-.36-1.793-1.01-2.446l-3.251-3.261A3.52 3.52 0 0 0 23.053 0h-.198v6.92h6.92v-.2z" fill="#990D29"/><path d="M20.918 23.578a4.584 4.584 0 0 1 1.1-1.783l7.756-7.705V9.14h-8.048c-.633 0-1.108-.51-1.108-1.142V0H3.436A3.436 3.436 0 0 0 0 3.428v32.144A3.436 3.436 0 0 0 3.436 39h22.871c1.895 0 3.467-1.538 3.467-3.428v-8.527l-1.259 1.225a4.557 4.557 0 0 1-1.78 1.096l-3.642 1.213-.555.03a2.877 2.877 0 0 1-2.325-1.19 2.86 2.86 0 0 1-.389-2.574l1.094-3.267zm-15.19-3.012h11.416a1.143 1.143 0 1 1 0 2.286H5.727a1.143 1.143 0 1 1 0-2.286zM4.581 17.14c0-.632.512-1.143 1.145-1.143h11.417a1.143 1.143 0 1 1 0 2.285H5.727a1.143 1.143 0 0 1-1.145-1.142zm0 9.14c0-.631.512-1.142 1.145-1.142h11.417a1.143 1.143 0 1 1 0 2.285H5.727a1.143 1.143 0 0 1-1.145-1.143zm17.144 5.713a1.143 1.143 0 1 1 0 2.285h-6.873a1.143 1.143 0 1 1 0-2.285h6.873zM5.727 13.711a1.143 1.143 0 1 1 0-2.285h15.999a1.143 1.143 0 1 1 0 2.285H5.727z" fill="#CB2023"/><path d="M23.052 24.532l-1.005 3.014c-.15.451.279.88.73.73l3.013-1.006-2.738-2.738zm8.742-9.435l-7.471 7.471 3.222 3.222 7.471-7.471-3.222-3.222zm6.524-3.15c-.408-.397-1.008-.624-1.645-.624s-1.238.227-1.648.625l-1.686 1.634 3.295 3.192 1.687-1.633a2.213 2.213 0 0 0-.003-3.194z" fill="#3D3C3B"/><path d="M38.398 15.22l.022-.022a.908.908 0 0 1-.022.022zm.011-.006l.033-.033-.033.033zm.016-.024c.025-.024.025-.024 0 0z" fill="#000"/></g></svg>