<svg width="40" height="41" fill="none" xmlns="http://www.w3.org/2000/svg"><path d="M24 40h-8l.943-9h6.114L24 40zM3.13 0h33.74C38.599 0 40 1.672 40 3.735V5H0V3.735C0 1.672 1.401 0 3.13 0z" fill="#CB2023"/><path d="M0 28h40v3.41c0 1.982-1.401 3.59-3.13 3.59H3.13C1.42 35 .027 33.427 0 31.466V28zm13 11h15v2H13z" fill="#CB2023"/><path d="M20.5 32a1.5 1.5 0 1 0 0-3 1.5 1.5 0 0 0 0 3z" fill="#fff"/><path d="M15 17.909a3.42 3.42 0 0 1-.466 1.615 2.967 2.967 0 0 1-1.205 1.09 3.868 3.868 0 0 1-1.758.38 3.175 3.175 0 0 1-2.594-1.12 4.887 4.887 0 0 1-.97-3.19v-.4a5.535 5.535 0 0 1 .426-2.253 3.326 3.326 0 0 1 1.224-1.502 3.267 3.267 0 0 1 1.846-.524 3.42 3.42 0 0 1 2.419.843 3.35 3.35 0 0 1 1.04 2.314h-1.944a1.6 1.6 0 0 0-.378-1.152 1.477 1.477 0 0 0-1.088-.35 1.167 1.167 0 0 0-1.098.597 3.933 3.933 0 0 0-.36 1.883v.617a4.395 4.395 0 0 0 .33 2.005c.244.415.688.65 1.147.607.377.027.75-.094 1.05-.34a1.5 1.5 0 0 0 .388-1.09L15 17.91z" fill="#3D3C3B"/><path fill-rule="evenodd" clip-rule="evenodd" d="M18.096 17.813h1.13L20.761 21H23v-.084l-1.811-3.63c.47-.208.87-.556 1.15-.998.262-.477.39-1.02.366-1.568a2.433 2.433 0 0 0-.875-1.998 3.706 3.706 0 0 0-2.411-.715H16v8.961h2.096v-3.155zm1.323-1.673h-1.323v-2.46h1.323a1.17 1.17 0 0 1 .895.326 1.512 1.512 0 0 1 0 1.82c-.245.226-.568.34-.895.315z" fill="#3D3C3B"/><path d="M26.638 12l1.857 6.267L30.352 12H33v9h-2.013v-2.11l.195-4.305-2.022 6.404h-1.33l-2.012-6.404.185 4.305V21H24v-9h2.638z" fill="#3D3C3B"/></svg>