<svg width="654" height="610" xmlns="http://www.w3.org/2000/svg"><g transform="translate(-58 -163)" fill="none" fill-rule="evenodd"><rect fill="#333" opacity=".803" transform="rotate(-17 692.218 415.358)" x="40.218" y="180.358" width="1304" height="470" rx="235"/><g opacity=".439" fill="#D1D1D1" fill-rule="nonzero"><path d="M257.463 530H240v21h17.463c5.81 0 10.537-4.71 10.537-10.5s-4.727-10.5-10.537-10.5zm0-31H240v21h17.463c5.81 0 10.537-4.71 10.537-10.5s-4.727-10.5-10.537-10.5z"/><path d="M247 469c-30.878 0-56 25.122-56 56s25.122 56 56 56 56-25.122 56-56-25.122-56-56-56zm30.17 71.283c0 11.063-9 20.064-20.064 20.064h-3.353v8.036h-9.563v-8.036h-22.58v-9.564h8.529v-51.567h-8.529v-9.563h22.579v-8.036h9.563v8.036h3.353c11.064 0 20.065 9 20.065 20.064 0 6.117-2.755 11.6-7.085 15.283 4.33 3.683 7.085 9.166 7.085 15.283z"/><path d="M305.13 467.87C289.735 452.479 269.27 444 247.5 444c-21.77 0-42.236 8.478-57.63 23.87C174.479 483.265 166 503.73 166 525.5c0 21.77 8.478 42.236 23.87 57.63C205.265 598.521 225.73 607 247.5 607c21.77 0 42.236-8.478 57.63-23.87C320.521 567.735 329 547.27 329 525.5c0-21.77-8.478-42.236-23.87-57.63zM247.5 590.977c-36.104 0-65.476-29.372-65.476-65.476s29.372-65.476 65.476-65.476 65.476 29.372 65.476 65.476-29.372 65.476-65.476 65.476z"/></g><g opacity=".475"><path d="M514.84 298.16C503.13 286.45 487.56 280 471 280c-16.56 0-32.13 6.45-43.84 18.16S409 325.44 409 342c0 16.56 6.45 32.13 18.16 43.84S454.44 404 471 404c16.56 0 32.13-6.45 43.84-18.16S533 358.56 533 342c0-16.56-6.45-32.13-18.16-43.84zM471 391.81c-27.465 0-49.81-22.345-49.81-49.81 0-27.465 22.345-49.81 49.81-49.81 27.465 0 49.81 22.345 49.81 49.81 0 27.465-22.345 49.81-49.81 49.81z" fill="#D1D1D1" fill-rule="nonzero"/><path d="M471 382c-22.091 0-40-17.909-40-40s17.909-40 40-40 40 17.909 40 40-17.909 40-40 40zm-15.862-38.392L470.64 366l15.502-22.392-15.502-25.839-15.502 25.84zm15.502 14.582l-6.523-9.43 6.523 2.91 6.523-2.91-6.523 9.43zm0-11.386l-9.661-4.294 9.66-16.1 9.662 16.1-9.661 4.294z" fill="#D8D8D8"/></g><g opacity=".605"><path d="M507.43 592.57c-7.46-7.461-17.38-11.57-27.93-11.57s-20.47 4.109-27.93 11.57c-7.461 7.46-11.57 17.38-11.57 27.93s4.109 20.47 11.57 27.93c7.46 7.461 17.38 11.57 27.93 11.57s20.47-4.109 27.93-11.57c7.461-7.46 11.57-17.38 11.57-27.93s-4.109-20.47-11.57-27.93zm-27.93 59.664c-17.498 0-31.734-14.236-31.734-31.734s14.236-31.734 31.734-31.734 31.734 14.236 31.734 31.734-14.236 31.734-31.734 31.734z" fill="#D1D1D1" fill-rule="nonzero"/><path d="M479.5 646c-14.083 0-25.5-11.417-25.5-25.5s11.417-25.5 25.5-25.5 25.5 11.417 25.5 25.5-11.417 25.5-25.5 25.5zm-.79-23.651l5.794-2.316-1.819-4.547-2.83 1.13 1.731-8.657-4.8-.959-2.356 11.787-6.43 2.573 1.819 4.547 3.465-1.387-1.488 7.435h19.14v-4.895h-13.168l.942-4.711z" fill="#D8D8D8"/></g></g></svg>