<svg width="255" height="32" xmlns="http://www.w3.org/2000/svg"><g fill="none" fill-rule="evenodd"><g fill-rule="nonzero"><path d="M30.297 31.5H3.674a3.656 3.656 0 0 1-3.146-1.775 3.648 3.648 0 0 1-.093-3.617L9.327 9.357h7.999L9.86 23.398a.58.58 0 0 0 0 .547c.053.08.187.267.48.267h13.465a.486.486 0 0 0 .44-.694L13.313 0h7.759l12.411 26.495a3.538 3.538 0 0 1-.213 3.377 3.492 3.492 0 0 1-2.973 1.628zm-20.01-20.542l-8.44 15.897c-.346.64-.32 1.415.054 2.042a2.046 2.046 0 0 0 1.773 1.001H30.31a1.88 1.88 0 0 0 1.613-.88c.36-.561.4-1.229.12-1.843L20.058 1.602H15.82l9.879 21.249a2.06 2.06 0 0 1-.134 2.002 2.08 2.08 0 0 1-1.76.961H10.34a2.12 2.12 0 0 1-1.853-1.068 2.143 2.143 0 0 1-.027-2.135l6.2-11.666h-4.373v.013z" fill="#CB2023"/><path d="M46.787 31.5h-7.759L26.63 5.005a3.538 3.538 0 0 1 .213-3.377A3.517 3.517 0 0 1 29.803 0h26.636c1.293 0 2.48.667 3.146 1.775a3.648 3.648 0 0 1 .093 3.617l-8.892 16.751h-7.999l7.466-14.041a.58.58 0 0 0 0-.547.548.548 0 0 0-.48-.267H36.308a.486.486 0 0 0-.44.694L46.787 31.5zm-6.746-1.602h4.24L34.402 8.65a2.06 2.06 0 0 1 .133-2.002 2.08 2.08 0 0 1 1.76-.961H49.76c.773 0 1.466.4 1.853 1.068.387.667.4 1.455.027 2.135l-6.2 11.666h4.373l8.439-15.897c.347-.64.32-1.415-.053-2.042a2.046 2.046 0 0 0-1.773-1.001H29.803a1.88 1.88 0 0 0-1.613.881 1.89 1.89 0 0 0-.12 1.842l11.971 25.56z" fill="#FFF"/></g><path d="M85.611 26.484l-1.69-5.61h-8.48l-1.689 5.61h-3.12l7.181-22.345h3.9l7.148 22.345h-3.25zm-9.422-8.108h6.986L79.698 6.701l-3.51 11.675zM98.579 3.75c1.495 0 2.773.21 3.835.632 1.061.422 2.09 1.076 3.086 1.962l-1.69 1.881c-.844-.67-1.673-1.162-2.485-1.475a7.201 7.201 0 0 0-2.615-.47c-1.17 0-2.134.27-2.892.81S94.68 8.42 94.68 9.458c0 .648.13 1.194.39 1.638.26.443.741.848 1.445 1.216.704.367 1.728.756 3.07 1.167 1.409.433 2.578.897 3.51 1.395a6.08 6.08 0 0 1 2.258 2.059c.574.876.861 1.984.861 3.324 0 1.297-.32 2.443-.958 3.438-.64.994-1.56 1.773-2.762 2.335s-2.627.843-4.273.843c-3.097 0-5.632-.962-7.603-2.886l1.69-1.881c.91.735 1.83 1.291 2.762 1.67.93.378 1.97.567 3.119.567 1.386 0 2.534-.34 3.444-1.021.91-.681 1.364-1.67 1.364-2.968 0-.735-.14-1.345-.422-1.832-.282-.486-.763-.924-1.446-1.313-.682-.39-1.673-.779-2.973-1.168-2.296-.692-3.975-1.524-5.036-2.497-1.061-.973-1.592-2.292-1.592-3.957 0-1.124.298-2.13.893-3.016.596-.886 1.43-1.578 2.502-2.075 1.073-.497 2.291-.746 3.656-.746zm16.023.39v22.344h-3.087V4.139h3.087zm19.174 22.344l-1.69-5.61h-8.48l-1.69 5.61h-3.118l7.18-22.345h3.9l7.147 22.345h-3.249zm-9.422-8.108h6.985l-3.476-11.675-3.51 11.675z" fill="#CB2023"/><path d="M149.616 4.301c2.968 0 5.274.616 6.92 1.849 1.647 1.232 2.47 3.06 2.47 5.48 0 2.53-.807 4.438-2.42 5.725-1.614 1.286-3.775 1.93-6.483 1.93h-2.437v7.49h-5.328V4.302h7.278zm.032 11.156c1.257 0 2.215-.297 2.876-.891.66-.595.991-1.573.991-2.935 0-2.357-1.321-3.535-3.964-3.535h-1.885v7.361h1.982zm23.598 11.319l-1.17-4.833h-6.563l-1.138 4.833h-5.523l6.79-22.475h6.466l6.791 22.475h-5.653zm-6.824-8.692h4.744l-2.372-9.923-2.372 9.923zM190.178 3.75c1.408 0 2.659.205 3.753.616 1.093.411 2.128 1.027 3.102 1.849L194.5 9.23c-.671-.52-1.332-.908-1.982-1.168a5.556 5.556 0 0 0-2.08-.389c-1.516 0-2.712.638-3.59 1.913-.877 1.276-1.316 3.244-1.316 5.903 0 2.616.44 4.556 1.316 5.821.878 1.265 2.096 1.897 3.656 1.897.823 0 1.57-.156 2.242-.47.671-.313 1.397-.762 2.177-1.346l2.371 3.049c-.844.843-1.868 1.535-3.07 2.075-1.202.54-2.529.811-3.98.811-2.08 0-3.888-.454-5.426-1.362-1.538-.908-2.735-2.254-3.59-4.038-.856-1.783-1.284-3.93-1.284-6.437 0-2.443.439-4.551 1.316-6.324.877-1.773 2.09-3.119 3.639-4.038s3.309-1.378 5.28-1.378zm16.319.551v22.475h-5.329V4.3zm4.943 22.475V4.3h13.419l-.553 3.795h-7.538v5.967h6.563v3.794h-6.563v8.919zm22.654-22.475v22.475h-5.328V4.3zm13.386-.551c1.409 0 2.66.205 3.754.616 1.094.411 2.128 1.027 3.103 1.849l-2.535 3.016c-.671-.52-1.332-.908-1.982-1.168a5.556 5.556 0 0 0-2.08-.389c-1.515 0-2.712.638-3.59 1.913-.877 1.276-1.315 3.244-1.315 5.903 0 2.616.438 4.556 1.315 5.821.878 1.265 2.096 1.897 3.656 1.897.823 0 1.57-.156 2.242-.47.671-.313 1.397-.762 2.177-1.346l2.372 3.049c-.845.843-1.869 1.535-3.07 2.075-1.203.54-2.53.811-3.981.811-2.08 0-3.888-.454-5.426-1.362-1.538-.908-2.735-2.254-3.59-4.038-.856-1.783-1.284-3.93-1.284-6.437 0-2.443.439-4.551 1.316-6.324.877-1.773 2.09-3.119 3.639-4.038s3.309-1.378 5.28-1.378z" fill="#FFF"/></g></svg>