<svg width="38" height="48" xmlns="http://www.w3.org/2000/svg"><g fill="none"><path d="M35.473.777H2.072c-1.069 0-1.94.864-1.94 1.934v6.586c0 1.07.871 1.934 1.94 1.934h33.4a1.937 1.937 0 0 0 1.938-1.934V2.711c0-1.07-.872-1.934-1.937-1.934zM3.625 5.364a1.194 1.194 0 1 1-.002-2.388 1.194 1.194 0 0 1 .002 2.388zm28.69 3.443h-8.438V6.005h8.439v2.802zm3.158 3.488H2.072c-1.069 0-1.94.865-1.94 1.936v6.585a1.94 1.94 0 0 0 1.94 1.935h33.4a1.938 1.938 0 0 0 1.938-1.935V14.23a1.94 1.94 0 0 0-1.937-1.936zM3.625 16.883c-.66 0-1.195-.531-1.195-1.194a1.195 1.195 0 1 1 1.195 1.194zm28.69 3.443h-8.438v-2.803h8.439v2.803zm3.158 3.488H2.072c-1.069 0-1.94.865-1.94 1.935v6.585a1.94 1.94 0 0 0 1.94 1.936h33.4a1.938 1.938 0 0 0 1.938-1.936v-6.585c0-1.07-.872-1.935-1.937-1.935zM3.625 28.4a1.194 1.194 0 0 1 0-2.387c.662 0 1.194.533 1.194 1.193A1.19 1.19 0 0 1 3.625 28.4zm28.69 3.443h-8.438V29.04h8.439v2.804z" fill="#FFF"/><path fill="#CC6A6C" d="M24.54 40.568h-3.56V35.39h-4.415v5.18H13v1.364H.54v4.418H13v1.366h11.54v-1.366h12.458v-4.418H24.54z"/></g></svg>