<svg width="50" height="51" xmlns="http://www.w3.org/2000/svg"><g fill="none"><path d="M37.55 15.586H12.38a1.46 1.46 0 0 0-1.462 1.457v4.963a1.46 1.46 0 0 0 1.461 1.458H37.55a1.46 1.46 0 0 0 1.46-1.458v-4.963a1.46 1.46 0 0 0-1.46-1.457zm-24 3.456a.9.9 0 1 1-.002-1.799.9.9 0 0 1 .002 1.8zm21.62 2.595h-6.358v-2.112h6.36v2.112h-.001zm2.38 2.628H12.38c-.806 0-1.462.653-1.462 1.46v4.962a1.46 1.46 0 0 0 1.461 1.458H37.55a1.46 1.46 0 0 0 1.46-1.458v-4.963a1.46 1.46 0 0 0-1.46-1.459zm-24 3.458c-.497 0-.9-.4-.9-.9a.9.9 0 1 1 .9.9zm21.62 2.595h-6.358v-2.113h6.36v2.113h-.001zm2.38 2.628H12.38a1.46 1.46 0 0 0-1.462 1.458v4.962c0 .807.656 1.46 1.461 1.46H37.55a1.46 1.46 0 0 0 1.46-1.46v-4.962a1.46 1.46 0 0 0-1.46-1.458zm-24 3.457zm21.62 2.594h-6.358v-2.112h6.36v2.112h-.001zm-5.859 6.575H26.63v-3.903H23.3v3.903h-2.686V46.6h-9.39v3.33h9.39v1.03h8.696v-1.03h9.39V46.6h-9.39z" fill="#FFF"/><path d="M39.821 7.58a1.258 1.258 0 0 1-.906-.504C36.897 4.35 33.662 2.67 30.22 2.67c-.216 0-.432.006-.648.02a1.252 1.252 0 0 1-.831-.252A12.07 12.07 0 0 0 21.444 0c-4.764 0-8.992 2.76-10.968 6.939a1.259 1.259 0 0 1-.963.707c-5.25.74-9.304 5.26-9.304 10.711 0 5.197 3.684 9.546 8.578 10.58v-3.213c0-.4.074-.782.197-1.142-2.617-.86-4.514-3.323-4.514-6.224a6.562 6.562 0 0 1 6.555-6.554c.182 0 .362.014.54.028a2.131 2.131 0 0 0 2.239-1.605 7.87 7.87 0 0 1 7.64-5.965c2.067 0 4.023.798 5.508 2.247a2.13 2.13 0 0 0 1.922.561c.442-.092.895-.14 1.345-.14 2.53 0 4.79 1.424 5.896 3.713a2.126 2.126 0 0 0 2.13 1.193 6.562 6.562 0 0 1 7.212 6.521c0 2.902-1.897 5.365-4.514 6.225.123.36.197.741.197 1.142v3.213c4.894-1.034 8.58-5.383 8.58-10.58 0-5.654-4.364-10.31-9.899-10.777z" fill="#CC6A6C"/></g></svg>