<svg width="38" height="38" xmlns="http://www.w3.org/2000/svg"><g fill="none"><path fill="#CB2023" d="M10.295 10.168h-.477l-.89 4.453h2.257z"/><path d="M28.305 19.074a11.634 11.634 0 0 0 1.828 3.226c.707-.89 1.421-1.935 1.902-3.226h-3.73z" fill="#3D3C3B"/><path d="M34.66 6.754H20.834l2.883 23.132c.051.946-.207 1.837-.825 2.535L18.01 38h16.65A3.344 3.344 0 0 0 38 34.66V10.168c0-1.842-1.498-3.414-3.34-3.414zm0 12.32h-.297c-.634 2.033-1.638 3.623-2.682 4.877.818.747 1.692 1.36 2.562 2.048a1.113 1.113 0 1 1-1.392 1.737c-.945-.746-1.831-1.37-2.718-2.184-.887.814-1.7 1.438-2.644 2.184a1.112 1.112 0 1 1-1.392-1.737c.87-.687 1.67-1.3 2.488-2.048-1.044-1.254-1.975-2.844-2.608-4.877h-.297a1.113 1.113 0 1 1 0-2.226h3.34v-1.114a1.113 1.113 0 1 1 2.226 0v1.114h3.414a1.113 1.113 0 1 1 0 2.226z" fill="#3D3C3B"/><path d="M18.122 2.926A3.344 3.344 0 0 0 14.808 0H3.34A3.344 3.344 0 0 0 0 3.34v24.64a3.344 3.344 0 0 0 3.34 3.34h17.556c.325-.37.597-.603.609-1.088.003-.121-3.368-27.186-3.383-27.306zm-4.47 18.353a1.113 1.113 0 0 1-1.31-.873l-.711-3.558H8.483l-.712 3.558c-.12.602-.7.998-1.31.873a1.113 1.113 0 0 1-.873-1.31L7.815 8.836c.104-.52.56-.895 1.091-.895h2.301c.53 0 .987.376 1.092.895l2.226 11.133c.12.603-.27 1.19-.873 1.31z" fill="#CB2023"/><path d="M13.008 33.547l.19 1.527c.128 1.023.808 2.066 1.926 2.587l3.737-4.114h-5.853z" fill="#990D29"/></g></svg>