<svg width="55" height="40" fill="none" xmlns="http://www.w3.org/2000/svg"><path d="M53 35V2.022C53 .905 52.09 0 50.966 0H4.034A2.028 2.028 0 0 0 2 2.022V35h51z" fill="#CB2023"/><path d="M48.407 3H6.593A.592.592 0 0 0 6 3.59v30.82c0 .326.266.59.593.59h41.814a.592.592 0 0 0 .593-.59V3.59a.592.592 0 0 0-.593-.59z" fill="#fff"/><path d="M54.852 35.2a.602.602 0 0 0-.45-.2H.598a.603.603 0 0 0-.45.2.577.577 0 0 0-.142.462C.341 38.136 2.515 40 5.063 40h44.874c2.548 0 4.722-1.865 5.058-4.337a.577.577 0 0 0-.143-.463z" fill="#CB2023"/><path d="M25.173 25.955H9.955c-.49 0-.886-.415-.886-.927s.397-.927.886-.927h15.218c.49 0 .886.415.886.927s-.396.927-.886.927zm0 3.471H9.955c-.49 0-.886-.415-.886-.927s.397-.927.886-.927h15.218c.49 0 .886.415.886.927s-.396.927-.886.927zm0 3.47H9.955c-.49 0-.886-.414-.886-.926s.397-.927.886-.927h15.218c.49 0 .886.415.886.927 0 .511-.396.926-.886.926zm18.939-6.941H28.894c-.49 0-.886-.415-.886-.927s.396-.927.886-.927h15.218c.489 0 .885.415.885.927s-.396.927-.885.927zm0 3.471H28.894c-.49 0-.886-.415-.886-.927s.396-.927.886-.927h15.218c.489 0 .885.415.885.927s-.396.927-.885.927zm0 3.47H28.894c-.49 0-.886-.414-.886-.926s.396-.927.886-.927h15.218c.489 0 .885.415.885.927 0 .511-.396.926-.885.926zM17.483 14.554v2.353H16.09V12.12h1.087l2.037 2.433V12.12h1.395v4.786H19.5l-2.016-2.353zm7.615 1.206v1.147H21.48V12.12h3.554v1.146h-2.16v.674h1.845v1.065h-1.845v.755h2.224zm2.266-3.639h1.28l.444 1.476.45-1.476h1.28l-.837 2.285.365.997 1.094-3.282h1.516l-1.988 4.785H29.81l-.723-1.711-.714 1.711h-1.159l-1.987-4.785h1.508l1.101 3.282.35-.997-.822-2.285zm8.859 1.564a3.977 3.977 0 0 0-.876-.367 1.652 1.652 0 0 0-.468-.071.685.685 0 0 0-.297.054.187.187 0 0 0-.11.182c0 .063.021.114.064.155.043.04.105.077.186.11.08.035.18.067.296.099.117.031.25.07.397.114.234.068.445.142.633.223.188.08.35.176.483.286.133.11.236.244.307.4.072.158.108.35.108.574 0 .287-.056.53-.168.725a1.33 1.33 0 0 1-.444.468c-.183.117-.39.201-.622.253a3.192 3.192 0 0 1-.697.077 4.17 4.17 0 0 1-.572-.04 5.175 5.175 0 0 1-1.14-.29 3.65 3.65 0 0 1-.497-.23l.6-1.152a4.289 4.289 0 0 0 1.04.445c.194.054.39.081.59.081.153 0 .259-.02.319-.057.059-.038.089-.089.089-.152a.213.213 0 0 0-.09-.172.838.838 0 0 0-.246-.125 5.514 5.514 0 0 0-.361-.107 8.048 8.048 0 0 1-.433-.128 3.831 3.831 0 0 1-.58-.233 1.557 1.557 0 0 1-.4-.283 1.002 1.002 0 0 1-.232-.36 1.334 1.334 0 0 1-.075-.466 1.455 1.455 0 0 1 .572-1.206c.176-.135.378-.237.604-.307.227-.07.466-.104.719-.104.186 0 .367.016.543.05a5.03 5.03 0 0 1 .972.297c.144.06.272.118.387.171l-.6 1.086z" fill="#3D3C3B"/></svg>