<svg width="34" height="34" xmlns="http://www.w3.org/2000/svg"><g fill="none"><path d="M18.39 0c-1.56 0-1 3.34-1 3.34S14 12.55 10.82 15a6.79 6.79 0 0 0-1.38 2.17c-.07.15-.12.31-.17.44a4.16 4.16 0 0 1-1.65 1.7l3.2 13.9a76.25 76.25 0 0 0 9.9.54 21.43 21.43 0 0 0 5.77-.19c5.68-1.21 4.26-5.18 4.26-5.18a3.89 3.89 0 0 0 1.32-5.18 3.49 3.49 0 0 0 0-5.23 3.2 3.2 0 0 0-.43-4c-2.38-2.17-8.81-.72-8.81-.72-.45.07-.93.17-1.44.29 0 0-2.23 1 0-5.72S20 0 18.39 0z" fill="#CB2023"/><path d="M8.52 32.21L6.1 20.71a1.58 1.58 0 0 0-1.47-1.2H0V33.4h7.55a.94.94 0 0 0 .97-1.19z" fill="#3D3C3B"/></g></svg>