<svg width="239" height="125" xmlns="http://www.w3.org/2000/svg"><g fill="none" opacity=".127"><path d="M67.622 130.564L-53.26 98.174a17.171 17.171 0 0 1-12.115-11.927 17.302 17.302 0 0 1 3.997-16.615l60.851-65.6 36.319 9.731-51.062 54.975c-.915.995-.753 2.083-.669 2.497.144.43.521 1.445 1.853 1.802L47.05 89.418a2.283 2.283 0 0 0 2.154-.532c.263-.256.916-.995.692-2.099L29.01-33.803l35.23 9.44 23.967 135.969c.962 5.61-.935 11.236-5.096 15.146-4.223 3.894-9.981 5.288-15.49 3.812zM1.874 12.507l-57.748 62.255c-2.357 2.5-3.182 6.065-2.254 9.38.928 3.317 3.498 5.833 6.827 6.725L69.64 123.273c3.027.81 6.082.063 8.401-2.056 2.32-2.12 3.317-5.116 2.797-8.257L57.68-18.29l-19.249-5.157L57.312 85.51a9.772 9.772 0 0 1-3.054 8.972c-2.49 2.27-5.896 3.119-9.164 2.243l-61.137-16.381c-3.51-.941-6.169-3.611-7.108-7.126-.94-3.515-.038-7.124 2.489-9.775l42.407-45.677-19.854-5.32-.017.06z" fill="#CB2023"/><path d="M143.449 150.882l-35.23-9.44L84.314 5.488c-.963-5.609.934-11.235 5.096-15.146 4.206-3.833 9.98-5.287 15.429-3.828l120.94 32.406a17.171 17.171 0 0 1 12.116 11.927 17.302 17.302 0 0 1-3.998 16.615l-60.85 65.6-36.32-9.731 51.063-54.975c.915-.995.752-2.083.669-2.497-.145-.43-.522-1.445-1.853-1.801l-61.137-16.382a2.283 2.283 0 0 0-2.154.532c-.263.256-.915.995-.692 2.1l20.827 120.574zm-28.671-15.514l19.249 5.157-18.879-108.957a9.772 9.772 0 0 1 3.053-8.972c2.49-2.27 5.896-3.119 9.165-2.243l61.136 16.381c3.51.941 6.17 3.611 7.109 7.126.94 3.515.037 7.124-2.49 9.775l-42.407 45.677 19.854 5.32 57.749-62.255c2.357-2.5 3.182-6.065 2.254-9.38-.928-3.317-3.498-5.833-6.827-6.725l-120.88-32.39c-3.027-.81-6.082-.063-8.402 2.057-2.32 2.12-3.317 5.115-2.796 8.257l23.112 131.172z" fill="#3D3C3B"/></g></svg>