<svg width="240" height="31" xmlns="http://www.w3.org/2000/svg"><g fill="none" fill-rule="evenodd"><g fill-rule="nonzero"><path d="M28.475 30.714H3.453a3.427 3.427 0 0 1-2.957-1.69 3.515 3.515 0 0 1-.088-3.445L8.766 9.625h7.517L9.267 22.998a.558.558 0 0 0 0 .521c.05.077.175.255.45.255h12.656a.463.463 0 0 0 .413-.661L12.512.714h7.292L31.47 25.947a3.409 3.409 0 0 1-.2 3.216 3.272 3.272 0 0 1-2.794 1.551zM9.668 11.151L1.737 26.29a1.989 1.989 0 0 0 .05 1.944c.35.598.977.954 1.666.954h25.034a1.76 1.76 0 0 0 1.516-.84 1.82 1.82 0 0 0 .113-1.753L18.852 2.24h-3.984l9.284 20.237a1.985 1.985 0 0 1-.125 1.907 1.949 1.949 0 0 1-1.654.915H9.718a1.99 1.99 0 0 1-1.742-1.017 2.065 2.065 0 0 1-.025-2.034l5.826-11.11h-4.11v.013z" fill="#CB2023"/><path d="M43.973 30.714H36.68L25.028 5.481a3.409 3.409 0 0 1 .2-3.216A3.295 3.295 0 0 1 28.01.715h25.034c1.215 0 2.33.635 2.957 1.69a3.515 3.515 0 0 1 .088 3.445l-8.357 15.953h-7.518L47.23 8.43a.558.558 0 0 0 0-.52.514.514 0 0 0-.45-.255H34.123a.463.463 0 0 0-.413.661l10.262 22.398zm-6.34-1.525h3.984L32.333 8.952a1.985 1.985 0 0 1 .125-1.907 1.949 1.949 0 0 1 1.654-.915h12.655a1.99 1.99 0 0 1 1.741 1.016c.364.636.376 1.386.025 2.034l-5.826 11.11h4.11l7.931-15.14c.326-.61.3-1.347-.05-1.944a1.918 1.918 0 0 0-1.666-.954H28.01c-.626 0-1.178.306-1.516.84a1.82 1.82 0 0 0-.113 1.754l11.252 24.343z" fill="#FFF"/></g><path d="M80.462 25.937l-1.588-5.343h-7.97l-1.588 5.343h-2.932l6.749-21.28h3.664l6.719 21.28h-3.054zm-8.856-7.722h6.566L74.904 7.096l-3.298 11.12zM92.65 4.285c1.405 0 2.606.201 3.603.603.998.402 1.965 1.024 2.901 1.869l-1.588 1.791c-.793-.638-1.572-1.107-2.336-1.405a6.69 6.69 0 0 0-2.458-.448c-1.1 0-2.005.257-2.718.772-.712.515-1.068 1.266-1.068 2.255 0 .617.122 1.137.366 1.56.244.422.697.808 1.359 1.158.662.35 1.623.72 2.886 1.112 1.323.411 2.422.854 3.298 1.328a5.743 5.743 0 0 1 2.122 1.96c.54.835.81 1.89.81 3.167 0 1.235-.301 2.327-.902 3.274-.6.947-1.465 1.688-2.595 2.224-1.13.535-2.469.803-4.016.803-2.911 0-5.293-.917-7.146-2.75l1.588-1.79c.855.7 1.72 1.23 2.596 1.59.875.36 1.853.54 2.932.54 1.302 0 2.381-.324 3.236-.972.856-.65 1.283-1.591 1.283-2.827 0-.7-.132-1.281-.397-1.745-.265-.463-.718-.88-1.359-1.25-.641-.371-1.572-.742-2.794-1.112-2.158-.66-3.736-1.452-4.733-2.379-.998-.926-1.497-2.182-1.497-3.768 0-1.07.28-2.028.84-2.872.56-.844 1.344-1.503 2.352-1.977 1.007-.473 2.152-.71 3.435-.71zm15.059.371v21.28h-2.901V4.657h2.9zm18.02 21.28l-1.587-5.342h-7.97l-1.589 5.343h-2.931l6.749-21.28h3.664l6.718 21.28h-3.054zm-8.855-7.72h6.565l-3.267-11.12-3.298 11.12z" fill="#CB2023"/><path d="M140.617 4.81c2.789 0 4.957.588 6.504 1.761 1.547 1.174 2.32 2.914 2.32 5.22 0 2.41-.758 4.226-2.274 5.451-1.517 1.226-3.548 1.838-6.092 1.838h-2.29v7.135h-5.009V4.81h6.84zm.03 10.626c1.18 0 2.082-.284 2.703-.85.62-.566.931-1.498.931-2.795 0-2.244-1.242-3.367-3.726-3.367h-1.77v7.012h1.862zm22.178 10.779l-1.1-4.602h-6.168l-1.069 4.602h-5.191l6.382-21.404h6.077l6.382 21.404h-5.313zm-6.413-8.278h4.458l-2.229-9.45-2.23 9.45zm22.326-13.651c1.324 0 2.5.195 3.528.587 1.028.39 2 .978 2.916 1.76L182.8 9.505c-.631-.494-1.252-.864-1.863-1.111a5.161 5.161 0 0 0-1.954-.371c-1.425 0-2.55.607-3.375 1.822-.824 1.215-1.236 3.089-1.236 5.622 0 2.491.412 4.339 1.236 5.544.825 1.204 1.97 1.806 3.436 1.806.773 0 1.476-.149 2.107-.447.631-.299 1.313-.726 2.046-1.282l2.23 2.903c-.795.803-1.757 1.462-2.887 1.977-1.13.515-2.376.772-3.74.772-1.955 0-3.655-.432-5.1-1.297-1.446-.865-2.57-2.147-3.375-3.846-.804-1.698-1.206-3.742-1.206-6.13 0-2.327.413-4.335 1.237-6.023.825-1.689 1.965-2.97 3.42-3.846 1.456-.875 3.11-1.312 4.962-1.312zm15.338.524v21.405h-5.008V4.81zm4.645 21.405V4.81h12.612l-.519 3.613h-7.085v5.684h6.169v3.613h-6.169v8.494zM220.013 4.81v21.405h-5.008V4.81zm12.582-.524c1.323 0 2.499.195 3.527.587 1.028.39 2 .978 2.916 1.76l-2.382 2.872c-.63-.494-1.252-.864-1.863-1.111a5.161 5.161 0 0 0-1.954-.371c-1.425 0-2.55.607-3.374 1.822-.825 1.215-1.237 3.089-1.237 5.622 0 2.491.412 4.339 1.237 5.544.824 1.204 1.97 1.806 3.435 1.806.774 0 1.476-.149 2.107-.447.631-.299 1.313-.726 2.046-1.282l2.23 2.903c-.795.803-1.756 1.462-2.886 1.977-1.13.515-2.377.772-3.741.772-1.955 0-3.654-.432-5.1-1.297-1.445-.865-2.57-2.147-3.374-3.846-.804-1.698-1.206-3.742-1.206-6.13 0-2.327.412-4.335 1.236-6.023.825-1.689 1.965-2.97 3.42-3.846 1.456-.875 3.11-1.312 4.963-1.312z" fill="#FFF"/></g></svg>