<svg width="44" height="34" xmlns="http://www.w3.org/2000/svg"><g fill="none"><path d="M6.73.007h-.003c-.416 0-.808.162-1.103.456a1.56 1.56 0 0 0-.464 1.114v23.54c0 .864.708 1.568 1.577 1.57 3.665.009 9.805.77 14.04 5.19V7.241c0-.292-.074-.567-.216-.795C17.085.864 10.404.016 6.731.007zm32.11 25.111V1.577a1.56 1.56 0 0 0-.464-1.114 1.554 1.554 0 0 0-1.103-.456h-.004c-3.673.009-10.354.857-13.83 6.44a1.5 1.5 0 0 0-.217.794v24.636c4.236-4.42 10.376-5.181 14.041-5.19a1.577 1.577 0 0 0 1.577-1.57z" fill="#CB2023"/><path d="M42.426 5.436h-1.142v19.682c0 2.204-1.801 4-4.015 4.006-3.109.008-8.234.614-11.864 4.04 6.278-1.533 12.896-.537 16.668.32A1.575 1.575 0 0 0 44 31.954V7.006c0-.866-.706-1.57-1.574-1.57zM2.716 25.118V5.436H1.574C.706 5.436 0 6.14 0 7.006v24.948a1.574 1.574 0 0 0 1.927 1.53c3.772-.858 10.39-1.854 16.668-.321-3.63-3.426-8.756-4.031-11.864-4.039-2.214-.005-4.015-1.802-4.015-4.006z" fill="#3D3C3B"/></g></svg>