<svg width="31" height="32" xmlns="http://www.w3.org/2000/svg"><g fill="#878787"><path d="M22.716 25.642v-5.678c0-.878-.672-1.55-1.55-1.55h-.257c-.259 0-.465-.154-.517-.36l-1.807-6.299v-.052a2.609 2.609 0 0 0-2.374-1.548H6.505a2.61 2.61 0 0 0-2.375 1.548v.052l-1.807 6.298c-.103.207-.31.362-.516.362h-.258A1.52 1.52 0 0 0 0 19.964v5.678c0 .878.671 1.55 1.549 1.55v2.58c0 .878.67 1.55 1.549 1.55H4.13c.878 0 1.549-.672 1.549-1.55v-2.58h11.358v2.58c0 .878.67 1.55 1.548 1.55h1.033c.878 0 1.549-.672 1.549-1.55v-2.58c.877 0 1.549-.672 1.549-1.55zm-18.07 4.13c0 .31-.206.517-.516.517H3.098c-.31 0-.517-.207-.517-.517v-2.58h2.065v2.58zm15.488 0c0 .31-.206.517-.516.517h-1.033c-.31 0-.516-.207-.516-.517v-2.58h2.065v2.58zm1.55-4.13c0 .31-.207.517-.517.517H1.549c-.31 0-.516-.207-.516-.517v-5.678c0-.31.206-.517.516-.517h.258c.671 0 1.29-.464 1.497-1.136l1.807-6.246a1.555 1.555 0 0 1 1.394-.878h9.706c.568 0 1.135.31 1.394.878l1.806 6.246c.207.672.827 1.136 1.498 1.136h.258c.31 0 .516.207.516.517v5.678z"/><path d="M4.646 20.48c-1.135 0-2.065.929-2.065 2.065s.93 2.065 2.065 2.065c1.136 0 2.065-.93 2.065-2.065a2.07 2.07 0 0 0-2.065-2.065zm0 3.097a1.036 1.036 0 0 1-1.032-1.032c0-.568.464-1.033 1.032-1.033.568 0 1.033.465 1.033 1.033 0 .568-.465 1.032-1.033 1.032zM18.07 20.48c-1.137 0-2.066.929-2.066 2.065s.93 2.065 2.065 2.065c1.136 0 2.065-.93 2.065-2.065a2.07 2.07 0 0 0-2.065-2.065zm0 3.097a1.036 1.036 0 0 1-1.033-1.032c0-.568.464-1.033 1.032-1.033.568 0 1.033.465 1.033 1.033 0 .568-.465 1.032-1.033 1.032zm-5.68-.516h-2.065c-.31 0-.516.207-.516.516 0 .31.207.517.516.517h2.065c.31 0 .517-.207.517-.517 0-.31-.207-.516-.517-.516zm1.033-2.065h-4.13c-.31 0-.517.207-.517.516 0 .31.207.517.517.517h4.13c.31 0 .516-.207.516-.517 0-.31-.206-.516-.516-.516zm-7.021-2.581h9.964c.31 0 .619-.155.826-.413a1 1 0 0 0 .154-.93l-1.239-4.13c-.103-.413-.516-.722-.98-.722H7.64c-.465 0-.826.258-.981.722l-1.24 4.13c-.103.31-.05.672.156.93.206.258.516.413.826.413zm1.239-5.163h7.486l1.239 4.13H6.402l1.239-4.13zM30.46.345h-8.777c-.31 0-.516.207-.516.517v8.776c0 .31.206.516.516.516h3.614V26.16h-1.033c-.31 0-.516.206-.516.516v1.549h-1.032c-.31 0-.517.206-.517.516v2.065c0 .31.207.516.517.516h6.195c.31 0 .516-.206.516-.516V28.74c0-.31-.206-.516-.516-.516h-1.033v-1.55c0-.309-.206-.515-.516-.515h-1.033V10.154h4.13c.31 0 .517-.206.517-.516V.862c0-.31-.207-.517-.516-.517zM28.394 30.29h-5.162v-1.033h5.163v1.033zm-1.548-2.065H24.78V27.19h2.065v1.033zm3.097-19.102H22.2V1.378h7.744v7.744z"/><path d="M25.297 8.09c.31 0 .516-.207.516-.517V6.541h.516c1.136 0 2.065-.93 2.065-2.065a2.072 2.072 0 0 0-2.065-2.066h-1.032c-.31 0-.516.207-.516.517v4.647c0 .309.206.515.516.515zm2.065-3.614c0 .568-.465 1.032-1.033 1.032h-.516V3.443h.516c.568 0 1.033.465 1.033 1.033z"/></g></svg>