<svg width="48" height="25" xmlns="http://www.w3.org/2000/svg"><g fill="none"><path d="M15.94 0v24.53h15.93V0H15.94zm9.82 14.27h-1.69V7.73l-2 .62V7l3.53-1.27h.18l-.02 8.54z" fill="#CB2023"/><path d="M0 8.27v16.26h15.94V8.27H0zm11 13.16H5.13v-1.16l2.76-2.94a6.83 6.83 0 0 0 .84-1.08 1.78 1.78 0 0 0 .27-.88 1.28 1.28 0 0 0-.29-.9 1 1 0 0 0-.82-.32 1.12 1.12 0 0 0-.9.39 1.58 1.58 0 0 0-.33 1H5a2.76 2.76 0 0 1 .37-1.42 2.62 2.62 0 0 1 1-1 3.27 3.27 0 0 1 1.54-.37 3 3 0 0 1 2.05.64 2.21 2.21 0 0 1 .73 1.78 2.87 2.87 0 0 1-.33 1.29A7.09 7.09 0 0 1 9.25 18l-1.94 2.07H11v1.36zM31.87 8.27v16.26h15.94V8.27H31.87zM42 20.86a3.3 3.3 0 0 1-2.19.69 3.21 3.21 0 0 1-2.09-.67 2.22 2.22 0 0 1-.81-1.79h1.69a1 1 0 0 0 .36.79c.251.203.567.31.89.3a1.32 1.32 0 0 0 1-.32 1.11 1.11 0 0 0 .34-.84c0-.85-.47-1.28-1.41-1.28h-.89v-1.32h.9c.35.03.695-.09.95-.33a1.16 1.16 0 0 0 .31-.85 1 1 0 0 0-.3-.8 1.17 1.17 0 0 0-.85-.29 1.25 1.25 0 0 0-.82.27.85.85 0 0 0-.32.69H37a2.07 2.07 0 0 1 .36-1.2 2.45 2.45 0 0 1 1-.83 3.36 3.36 0 0 1 1.43-.3 3.2 3.2 0 0 1 2.12.65c.516.444.8 1.1.77 1.78.001.39-.125.77-.36 1.08a2.35 2.35 0 0 1-.94.76 2 2 0 0 1 1.43 2 2.21 2.21 0 0 1-.81 1.81z" fill="#3D3C3B"/></g></svg>