<svg width="35" height="40" xmlns="http://www.w3.org/2000/svg"><g fill="none"><path d="M6.42 29.052c-.9.652-1.42 1.7-1.42 2.795v6.988C5 39.488 5.52 40 6.183 40h4.734c.663 0 1.184-.512 1.184-1.165v-5.241L17 29.984 10.562 26 6.42 29.052z" fill="#3D3C3B"/><path d="M7.416.423c0 .024-.024.024-.024.047L.238 9.845c-.6.804.012 1.875.954 1.875H4.77v6.015c0 2.13 1.71 2.969 1.789 3.047 9.103 5.638 15.612 9.684 17.288 10.687v7.36A1.17 1.17 0 0 0 25.038 40h4.77A1.17 1.17 0 0 0 31 38.828v-9.375a3.483 3.483 0 0 0-1.717-3c-.024-.023-.048-.023-.071-.046-.08-.05-16.508-10.22-17.289-10.688v-4H15.5c.941 0 1.554-1.07.954-1.874L9.3.47c0-.023-.024-.023-.024-.047a1.234 1.234 0 0 0-1.86 0z" fill="#CB2023"/><path d="M26.085.462L19.297 9.62l-.069.07c-.575.79.012 1.845.915 1.845h3.428v4.19l-3.063 2.33L26.725 22l2.331-1.776a3.453 3.453 0 0 0 1.371-2.768v-5.921h3.429c.945 0 1.476-1.116.914-1.846L27.913.462c-.421-.615-1.405-.617-1.828 0z" fill="#3D3C3B"/></g></svg>