<svg width="35" height="35" xmlns="http://www.w3.org/2000/svg"><g fill="none"><path d="M20.979 0C13.267 0 6.992 6.274 6.992 13.987c0 7.712 6.275 13.987 13.987 13.987s13.987-6.275 13.987-13.987C34.966 6.274 28.69 0 20.979 0zm0 23.88c-5.455 0-9.893-4.438-9.893-9.893 0-5.455 4.438-9.893 9.893-9.893 5.455 0 9.893 4.438 9.893 9.893 0 5.455-4.438 9.893-9.893 9.893zM2.951 27.747l-2.02 2.02a3.07 3.07 0 0 0 0 4.336A3.056 3.056 0 0 0 3.099 35c.785 0 1.57-.299 2.168-.897l2.02-2.02-4.336-4.336z" fill="#CB2023"/><path d="M7.714 22.984l-3.315 3.315 4.336 4.336 3.328-3.328a16.166 16.166 0 0 1-4.349-4.323z" fill="#3D3C3B"/></g></svg>