<svg width="44" height="39" fill="none" xmlns="http://www.w3.org/2000/svg"><path d="M41.532 13.692l-30.593-2.318a3.277 3.277 0 0 0-.483-.008L9.23 6.552c-.03-.096-.059-.192-.108-.273-.188-.385-.583-.698-1.106-.826L2.183 4.057c-.898-.216-1.846.2-2.113.939-.266.73.247 1.5 1.155 1.717l4.867 1.163 5.854 22.929c.109.674.82 1.195 1.688 1.195l25.173-.008c.938 0 1.698-.618 1.698-1.38 0-.762-.76-1.38-1.698-1.38l-23.78.008-.81-3.169h25.035c1.312 0 2.448-.706 2.685-1.676l2.023-8.288c.267-1.187-.839-2.294-2.428-2.415zM16.5 39a2.5 2.5 0 1 0 0-5 2.5 2.5 0 0 0 0 5zm18 0a2.5 2.5 0 1 0 0-5 2.5 2.5 0 0 0 0 5z" fill="#CB2023"/><path d="M17.762 10.346l.312.03.976.086 4.018.364.144-1.495c.2-2.022 2.05-3.501 4.139-3.316C29.44 6.21 30.968 8 30.776 10.02l-.144 1.495 4.018.365 1.281.116c.472.046.897-.295.937-.752l.128-1.332c.048-.457-.305-.868-.777-.906l-1.28-.117a7.33 7.33 0 0 0-.92-2.881l.992-.798a.817.817 0 0 0 .112-1.178l-.88-1.03a.883.883 0 0 0-1.217-.108l-1 .79a8.075 8.075 0 0 0-2.754-1.41l.12-1.24c.048-.457-.304-.867-.777-.906L27.24.004c-.473-.046-.897.295-.937.752l-.12 1.24c-1.064.1-2.073.41-2.977.89l-.825-.96a.883.883 0 0 0-1.216-.11l-1.065.853a.817.817 0 0 0-.112 1.177l.824.961a7.647 7.647 0 0 0-1.456 2.665l-1.281-.116c-.472-.047-.897.294-.937.751l-.128 1.332c-.072.457.28.86.753.907z" fill="#3D3C3B"/></svg>