<svg width="80" height="42" xmlns="http://www.w3.org/2000/svg"><g fill="none"><path d="M40.32 42H4.89c-1.721 0-3.3-.89-4.187-2.367a4.873 4.873 0 0 1-.125-4.823l11.834-22.335h10.645l-9.935 18.722a.774.774 0 0 0 0 .73.73.73 0 0 0 .639.356H31.68a.647.647 0 0 0 .585-.925L17.717 0h10.326L44.56 35.326a4.726 4.726 0 0 1-.283 4.503A4.645 4.645 0 0 1 40.32 42zM13.69 14.611L2.459 35.807a2.76 2.76 0 0 0 .07 2.723 2.722 2.722 0 0 0 2.36 1.334h35.449c.887 0 1.668-.427 2.147-1.174.479-.748.532-1.637.16-2.456L26.694 2.136h-5.643L34.2 30.468a2.752 2.752 0 0 1-.177 2.67 2.767 2.767 0 0 1-2.342 1.28H13.76a2.822 2.822 0 0 1-2.466-1.423 2.862 2.862 0 0 1-.035-2.848l8.25-15.554h-5.82v.018z" fill="#CB2023"/><path d="M62.265 42H51.94L35.44 6.674a4.726 4.726 0 0 1 .283-4.503A4.678 4.678 0 0 1 39.663 0H75.11c1.721 0 3.3.89 4.187 2.367a4.873 4.873 0 0 1 .125 4.823L67.588 29.525H56.943l9.935-18.722a.774.774 0 0 0 0-.73.73.73 0 0 0-.639-.356H48.32a.647.647 0 0 0-.585.925L62.265 42zm-8.977-2.136h5.642L45.783 11.532a2.752 2.752 0 0 1 .178-2.67 2.767 2.767 0 0 1 2.341-1.28h17.92c1.029 0 1.951.533 2.466 1.423.514.89.532 1.94.035 2.848l-8.25 15.554h5.82L77.523 6.21a2.76 2.76 0 0 0-.07-2.723 2.722 2.722 0 0 0-2.36-1.335h-35.43c-.888 0-1.669.428-2.148 1.175-.479.747-.532 1.637-.16 2.456l15.933 34.08z" fill="#3D3C3B"/></g></svg>