<svg width="43" height="35" xmlns="http://www.w3.org/2000/svg"><g fill="none"><path d="M39.817 0H10.35a3.194 3.194 0 0 0-3.182 3.181v18.304c0 1.767 1.453 3.181 3.182 3.181h20.314l4.597 4.635a.98.98 0 0 0 .707.314c.55 0 1.021-.432 1.021-1.02v-3.929h2.83A3.194 3.194 0 0 0 43 21.485V3.18C43 1.414 41.546 0 39.817 0z" fill="#CB2023"/><path d="M5.25 21.573v-6.317H2.062c-1.128 0-2.06.954-2.06 2.106v12.156c-.04 1.231.893 2.185 2.06 2.185h1.827v2.622c0 .357.311.675.661.675.195 0 .35-.08.467-.199l2.994-3.058h13.22c1.127 0 2.06-.954 2.06-2.106v-3.02H10.189c-2.721 0-4.938-2.263-4.938-5.044z" fill="#3D3C3B"/></g></svg>