<svg width="823" height="397" fill="none" xmlns="http://www.w3.org/2000/svg"><path fill-rule="evenodd" clip-rule="evenodd" d="M818.475 9H0V8h819v1h-.525zM.525 55H819v-1H0v1h.525zm817.95 46H0v-1h819v1h-.525zM.525 147H819v-1H0v1h.525zm817.95 46H0v-1h819v1h-.525zM.525 239H819v-1H0v1h.525zm817.95 46H0v-1h819v1h-.525zM.525 331H819v-1H0v1h.525zm0 46H819v-1H0v1h.525z" fill="url(#paint0_linear)"/><path opacity=".32" d="M46.033 391.522l36.04-59.69 47.521 39.152 62.932-79.684 64.704 22.551 33.44-77.465 73.745-37.984 25.236 26.62 58.496 28.694 47.822-48.024 46.637-44.671 35.566 18.744 31.638-59.358 63.157 10.933h65.049l49.986-48.823 17.796-76.085" stroke="#fff" stroke-width="3"/><g filter="url(#filter0_d)"><path fill-rule="evenodd" clip-rule="evenodd" d="M810 6a4 4 0 1 1-8 0 4 4 0 0 1 8 0zm-23 79a4 4 0 1 0 0-8 4 4 0 0 0 0 8zm-173 36a4 4 0 1 1-8 0 4 4 0 0 1 8 0zm-68 40a4 4 0 1 1-8 0 4 4 0 0 1 8 0zm-182 42a4 4 0 1 0 0-8 4 4 0 0 0 0 8zm-69 33a4 4 0 1 1-8 0 4 4 0 0 1 8 0zm-99 55a4 4 0 1 1-8 0 4 4 0 0 1 8 0zM83 337a4 4 0 1 0 0-8 4 4 0 0 0 0 8zm47 38a4 4 0 1 0 0-8 4 4 0 0 0 0 8zm128-58a4 4 0 1 0 0-8 4 4 0 0 0 0 8zm135-93a4 4 0 1 1-8 0 4 4 0 0 1 8 0zm55 33a4 4 0 1 0 0-8 4 4 0 0 0 0 8zm130-74a4 4 0 1 0 0-8 4 4 0 0 0 0 8zm95-48a4 4 0 1 0 0-8 4 4 0 0 0 0 8zm69-4a4 4 0 1 1-8 0 4 4 0 0 1 8 0z" fill="#7A7979"/></g><path d="M40.3 386.631l45.132-25.365 48.14-12.682 55.647-22.737 57.412-40.885 86.49-20.158 57.368-81.927 38.924 13.572 19.428 34.398 54.922 33.957 45.505-12.147 32.287-44.25L639.2 103.996l63.079-68.047L728.848 59.6l50.157-23.65 36.598-8.863" stroke="#fff" stroke-width="3"/><g filter="url(#filter1_d)"><path fill-rule="evenodd" clip-rule="evenodd" d="M819 27a4 4 0 1 1-8 0 4 4 0 0 1 8 0zM702 40a4 4 0 1 0 0-8 4 4 0 0 0 0 8zm-59 65a4 4 0 1 1-8 0 4 4 0 0 1 8 0zm-249 78a4 4 0 1 1-8 0 4 4 0 0 1 8 0zm-61 85a4 4 0 1 0 0-8 4 4 0 0 0 0 8zm-82 17a4 4 0 1 1-8 0 4 4 0 0 1 8 0zm-61 46a4 4 0 1 0 0-8 4 4 0 0 0 0 8zm-50 17a4 4 0 1 1-8 0 4 4 0 0 1 8 0zm-55 15a4 4 0 1 1-8 0 4 4 0 0 1 8 0zm343-162a4 4 0 1 0 0-8 4 4 0 0 0 0 8zm25 29a4 4 0 1 1-8 0 4 4 0 0 1 8 0zm52 38a4 4 0 1 0 0-8 4 4 0 0 0 0 8zm46-14a4 4 0 1 1-8 0 4 4 0 0 1 8 0zm30-43a4 4 0 1 0 0-8 4 4 0 0 0 0 8zM732 60a4 4 0 1 1-8 0 4 4 0 0 1 8 0zm46-20a4 4 0 1 0 0-8 4 4 0 0 0 0 8z" fill="#fff"/></g><g filter="url(#filter2_d)"><path d="M47 370.524l31.778 16.43 34.359-55.056 33.461 8.054 45.676 34.015 47.452-45.019 33.633 15.411 33.857-83.652 43.417-32.938 47.355 19.266 23.973 28.56 42.977-8.792 39.305-44.077 78.997 11.395L632.683 193h44.721l45.131-94.265 38.519-12.515 7.268-77.11" stroke="#E36D6F" stroke-width="3"/></g><g filter="url(#filter3_d)"><path fill-rule="evenodd" clip-rule="evenodd" d="M772 10a4 4 0 1 1-8 0 4 4 0 0 1 8 0zm-11 80a4 4 0 1 0 0-8 4 4 0 0 0 0 8zm-35 10a4 4 0 1 1-8 0 4 4 0 0 1 8 0zm-91 94a4 4 0 1 1-8 0 4 4 0 0 1 8 0zm-129 29a4 4 0 1 1-8 0 4 4 0 0 1 8 0zm-151 5a4 4 0 1 1-8 0 4 4 0 0 1 8 0zm-47 37a4 4 0 1 0 0-8 4 4 0 0 0 0 8zm-69 69a4 4 0 1 0 0-8 4 4 0 0 0 0 8zm-120-2a4 4 0 1 1-8 0 4 4 0 0 1 8 0zm-34 55a4 4 0 1 1-8 0 4 4 0 0 1 8 0zm62-43a4 4 0 1 0 0-8 4 4 0 0 0 0 8zm47 29a4 4 0 1 1-8 0 4 4 0 0 1 8 0zm83-28a4 4 0 1 1-8 0 4 4 0 0 1 8 0zm121-93a4 4 0 1 0 0-8 4 4 0 0 0 0 8zm29 23a4 4 0 1 1-8 0 4 4 0 0 1 8 0zm37-5a4 4 0 1 0 0-8 4 4 0 0 0 0 8zm117-33a4 4 0 1 0 0-8 4 4 0 0 0 0 8zm97-39a4 4 0 1 0 0-8 4 4 0 0 0 0 8z" fill="#EF9798"/></g><defs><filter id="filter0_d" x="75" y="0" width="739" height="381" filterUnits="userSpaceOnUse" color-interpolation-filters="sRGB"><feFlood flood-opacity="0" result="BackgroundImageFix"/><feColorMatrix in="SourceAlpha" values="0 0 0 0 0 0 0 0 0 0 0 0 0 0 0 0 0 0 127 0"/><feOffset dy="2"/><feGaussianBlur stdDeviation="2"/><feColorMatrix values="0 0 0 0 0 0 0 0 0 0 0 0 0 0 0 0 0 0 0.5 0"/><feBlend in2="BackgroundImageFix" result="effect1_dropShadow"/><feBlend in="SourceGraphic" in2="effect1_dropShadow" result="shape"/></filter><filter id="filter1_d" x="73" y="21" width="750" height="352" filterUnits="userSpaceOnUse" color-interpolation-filters="sRGB"><feFlood flood-opacity="0" result="BackgroundImageFix"/><feColorMatrix in="SourceAlpha" values="0 0 0 0 0 0 0 0 0 0 0 0 0 0 0 0 0 0 127 0"/><feOffset dy="2"/><feGaussianBlur stdDeviation="2"/><feColorMatrix values="0 0 0 0 0 0 0 0 0 0 0 0 0 0 0 0 0 0 0.5 0"/><feBlend in2="BackgroundImageFix" result="effect1_dropShadow"/><feBlend in="SourceGraphic" in2="effect1_dropShadow" result="shape"/></filter><filter id="filter2_d" x="42.311" y="6.969" width="731.504" height="387.954" filterUnits="userSpaceOnUse" color-interpolation-filters="sRGB"><feFlood flood-opacity="0" result="BackgroundImageFix"/><feColorMatrix in="SourceAlpha" values="0 0 0 0 0 0 0 0 0 0 0 0 0 0 0 0 0 0 127 0"/><feOffset dy="2"/><feGaussianBlur stdDeviation="2"/><feColorMatrix values="0 0 0 0 0 0 0 0 0 0 0 0 0 0 0 0 0 0 0.5 0"/><feBlend in2="BackgroundImageFix" result="effect1_dropShadow"/><feBlend in="SourceGraphic" in2="effect1_dropShadow" result="shape"/></filter><filter id="filter3_d" x="73" y="4" width="703" height="393" filterUnits="userSpaceOnUse" color-interpolation-filters="sRGB"><feFlood flood-opacity="0" result="BackgroundImageFix"/><feColorMatrix in="SourceAlpha" values="0 0 0 0 0 0 0 0 0 0 0 0 0 0 0 0 0 0 127 0"/><feOffset dy="2"/><feGaussianBlur stdDeviation="2"/><feColorMatrix values="0 0 0 0 0 0 0 0 0 0 0 0 0 0 0 0 0 0 0.5 0"/><feBlend in2="BackgroundImageFix" result="effect1_dropShadow"/><feBlend in="SourceGraphic" in2="effect1_dropShadow" result="shape"/></filter><linearGradient id="paint0_linear" x1="849.959" y1="-28.925" x2="-132.953" y2="-28.925" gradientUnits="userSpaceOnUse"><stop stop-color="#3D3C3B"/><stop offset=".492" stop-color="#6A6A6A"/><stop offset="1" stop-color="#3D3C3B"/></linearGradient></defs></svg>